<svg viewBox="0 0 802.5 400" xmlns="http://www.w3.org/2000/svg"><g><g><g><g><g><line x1="118" y1="378" x2="113" y2="378" style="visibility: inherit;" fill="rgb(0, 0, 0)" stroke="rgb(204, 204, 204)" stroke-width="1px"></line><line x1="118" y1="336" x2="113" y2="336" style="visibility: inherit;" fill="rgb(0, 0, 0)" stroke="rgb(204, 204, 204)" stroke-width="1px"></line><line x1="118" y1="294" x2="113" y2="294" style="visibility: inherit;" fill="rgb(0, 0, 0)" stroke="rgb(204, 204, 204)" stroke-width="1px"></line><line x1="118" y1="252" x2="113" y2="252" style="visibility: inherit;" fill="rgb(0, 0, 0)" stroke="rgb(204, 204, 204)" stroke-width="1px"></line><line x1="118" y1="210" x2="113" y2="210" style="visibility: inherit;" fill="rgb(0, 0, 0)" stroke="rgb(204, 204, 204)" stroke-width="1px"></line><line x1="118" y1="168" x2="113" y2="168" style="visibility: inherit;" fill="rgb(0, 0, 0)" stroke="rgb(204, 204, 204)" stroke-width="1px"></line><line x1="118" y1="125.99999999999997" x2="113" y2="125.99999999999997" style="visibility: inherit;" fill="rgb(0, 0, 0)" stroke="rgb(204, 204, 204)" stroke-width="1px"></line><line x1="118" y1="84.00000000000006" x2="113" y2="84.00000000000006" style="visibility: inherit;" fill="rgb(0, 0, 0)" stroke="rgb(204, 204, 204)" stroke-width="1px"></line><line x1="118" y1="42" x2="113" y2="42" style="visibility: inherit;" fill="rgb(0, 0, 0)" stroke="rgb(204, 204, 204)" stroke-width="1px"></line><line x1="118" y1="0" x2="113" y2="0" style="visibility: inherit;" fill="rgb(0, 0, 0)" stroke="rgb(204, 204, 204)" stroke-width="1px"></line></g><g transform="translate(108, 0)"><text x="0" y="378" dx="0em" dy="0.3em" style="text-anchor: end; visibility: hidden; font-family: &quot;Helvetica Neue&quot;, sans-serif; font-size: 12px; font-weight: 200;" fill="rgb(50, 49, 63)" stroke="none" stroke-width="1px">-5.000e-3</text><text x="0" y="336" dx="0em" dy="0.3em" style="text-anchor: end; visibility: inherit; font-family: &quot;Helvetica Neue&quot;, sans-serif; font-size: 12px; font-weight: 200;" fill="rgb(50, 49, 63)" stroke="none" stroke-width="1px">0.00</text><text x="0" y="294" dx="0em" dy="0.3em" style="text-anchor: end; visibility: inherit; font-family: &quot;Helvetica Neue&quot;, sans-serif; font-size: 12px; font-weight: 200;" fill="rgb(50, 49, 63)" stroke="none" stroke-width="1px">5.000e-3</text><text x="0" y="252" dx="0em" dy="0.3em" style="text-anchor: end; visibility: inherit; font-family: &quot;Helvetica Neue&quot;, sans-serif; font-size: 12px; font-weight: 200;" fill="rgb(50, 49, 63)" stroke="none" stroke-width="1px">0.0100</text><text x="0" y="210" dx="0em" dy="0.3em" style="text-anchor: end; visibility: inherit; font-family: &quot;Helvetica Neue&quot;, sans-serif; font-size: 12px; font-weight: 200;" fill="rgb(50, 49, 63)" stroke="none" stroke-width="1px">0.0150</text><text x="0" y="168" dx="0em" dy="0.3em" style="text-anchor: end; visibility: inherit; font-family: &quot;Helvetica Neue&quot;, sans-serif; font-size: 12px; font-weight: 200;" fill="rgb(50, 49, 63)" stroke="none" stroke-width="1px">0.0200</text><text x="0" y="125.99999999999997" dx="0em" dy="0.3em" style="text-anchor: end; visibility: inherit; font-family: &quot;Helvetica Neue&quot;, sans-serif; font-size: 12px; font-weight: 200;" fill="rgb(50, 49, 63)" stroke="none" stroke-width="1px">0.0250</text><text x="0" y="84.00000000000006" dx="0em" dy="0.3em" style="text-anchor: end; visibility: inherit; font-family: &quot;Helvetica Neue&quot;, sans-serif; font-size: 12px; font-weight: 200;" fill="rgb(50, 49, 63)" stroke="none" stroke-width="1px">0.0300</text><text x="0" y="42" dx="0em" dy="0.3em" style="text-anchor: end; visibility: inherit; font-family: &quot;Helvetica Neue&quot;, sans-serif; font-size: 12px; font-weight: 200;" fill="rgb(50, 49, 63)" stroke="none" stroke-width="1px">0.0350</text><text x="0" y="0" dx="0em" dy="0.3em" style="text-anchor: end; visibility: hidden; font-family: &quot;Helvetica Neue&quot;, sans-serif; font-size: 12px; font-weight: 200;" fill="rgb(50, 49, 63)" stroke="none" stroke-width="1px">0.0400</text></g><line x1="118" y1="0" x2="118" y2="378" fill="rgb(0, 0, 0)" stroke="rgb(204, 204, 204)" stroke-width="1px"></line></g></g><g transform="translate(118, 0)" clip-path="url(#clip_0)"><clipPath id="clip_0"><rect width="684" height="378"></rect></clipPath><g><g><g><line x1="0" y1="0" x2="0" y2="378" fill="rgb(0, 0, 0)" stroke="rgb(60, 60, 60)" stroke-width="1px" opacity="0.25"></line><line x1="85.5625" y1="0" x2="85.5625" y2="378" fill="rgb(0, 0, 0)" stroke="rgb(60, 60, 60)" stroke-width="1px" opacity="0.25"></line><line x1="171.125" y1="0" x2="171.125" y2="378" fill="rgb(0, 0, 0)" stroke="rgb(60, 60, 60)" stroke-width="1px" opacity="0.25"></line><line x1="256.6875" y1="0" x2="256.6875" y2="378" fill="rgb(0, 0, 0)" stroke="rgb(60, 60, 60)" stroke-width="1px" opacity="0.25"></line><line x1="342.25" y1="0" x2="342.25" y2="378" fill="rgb(0, 0, 0)" stroke="rgb(60, 60, 60)" stroke-width="1px" opacity="0.25"></line><line x1="427.8125" y1="0" x2="427.8125" y2="378" fill="rgb(0, 0, 0)" stroke="rgb(60, 60, 60)" stroke-width="1px" opacity="0.25"></line><line x1="513.375" y1="0" x2="513.375" y2="378" fill="rgb(0, 0, 0)" stroke="rgb(60, 60, 60)" stroke-width="1px" opacity="0.25"></line><line x1="598.9375" y1="0" x2="598.9375" y2="378" fill="rgb(0, 0, 0)" stroke="rgb(60, 60, 60)" stroke-width="1px" opacity="0.25"></line><line x1="684.5" y1="0" x2="684.5" y2="378" fill="rgb(0, 0, 0)" stroke="rgb(60, 60, 60)" stroke-width="1px" opacity="0.25"></line></g><g><line x1="0" y1="378" x2="684.5" y2="378" fill="rgb(0, 0, 0)" stroke="rgb(60, 60, 60)" stroke-width="1px" opacity="0.25"></line><line x1="0" y1="336" x2="684.5" y2="336" fill="rgb(0, 0, 0)" stroke="rgb(60, 60, 60)" stroke-width="1px" opacity="0.25"></line><line x1="0" y1="294" x2="684.5" y2="294" fill="rgb(0, 0, 0)" stroke="rgb(60, 60, 60)" stroke-width="1px" opacity="0.25"></line><line x1="0" y1="252" x2="684.5" y2="252" fill="rgb(0, 0, 0)" stroke="rgb(60, 60, 60)" stroke-width="1px" opacity="0.25"></line><line x1="0" y1="210" x2="684.5" y2="210" fill="rgb(0, 0, 0)" stroke="rgb(60, 60, 60)" stroke-width="1px" opacity="0.25"></line><line x1="0" y1="168" x2="684.5" y2="168" fill="rgb(0, 0, 0)" stroke="rgb(60, 60, 60)" stroke-width="1px" opacity="0.25"></line><line x1="0" y1="125.99999999999997" x2="684.5" y2="125.99999999999997" fill="rgb(0, 0, 0)" stroke="rgb(60, 60, 60)" stroke-width="1px" opacity="0.25"></line><line x1="0" y1="84.00000000000006" x2="684.5" y2="84.00000000000006" fill="rgb(0, 0, 0)" stroke="rgb(60, 60, 60)" stroke-width="1px" opacity="0.25"></line><line x1="0" y1="42" x2="684.5" y2="42" fill="rgb(0, 0, 0)" stroke="rgb(60, 60, 60)" stroke-width="1px" opacity="0.25"></line><line x1="0" y1="0" x2="684.5" y2="0" fill="rgb(0, 0, 0)" stroke="rgb(60, 60, 60)" stroke-width="1px" opacity="0.25"></line></g></g></g><g><g><line x1="0" y1="336" x2="684.5" y2="336" fill="rgb(0, 0, 0)" stroke="rgb(153, 153, 153)" stroke-width="1.5px"></line></g></g><g><g><line x1="85.5625" y1="0" x2="85.5625" y2="378" fill="rgb(0, 0, 0)" stroke="rgb(153, 153, 153)" stroke-width="1.5px"></line></g></g><g><g><g><g><g><path stroke="rgb(0, 119, 187)" stroke-width="2px" d="M98.46361375,336L99.1271509375,336L99.8809565625,233.63723337423943L100.70791812499999,183.1534736338286L101.4202259375,224.61203511636182L102.29681375000001,251.63050239344923L103.03949625000001,211.9745069259032L103.74709812500001,237.78823209675517L104.601011875,257.16120557571827L105.3646571875,222.46813591652264L106.11931843750001,243.17081010842557L106.8508778125,259.6156501973621L107.64618125,272.8281571859686L108.4534634375,239.02475663794365L109.27743031250002,255.2021372237777L110.16343,268.49708003968124L110.90440125,279.47761860049314L111.621415,288.5839428347845L112.30249249999999,296.1616906430999L113.08239468749998,260.81807432563625L114.00433062500001,272.6838600551798L114.786371875,282.62888587125747L115.61033875000001,290.97787772517364L116.3346253125,297.99671940531806L117.15174718749999,303.90422268129885L117.887156875,308.8812414348772L118.62898375,313.07780798676583L119.4850365625,316.61877666998487L120.2431203125,319.60832666046014L121.0662315625,322.1335830495576L121.862390625,324.2675491709492L122.7013309375,326.07149578052355L123.5244421875,327.59691817897533L124.26241875,288.5822851729623L125.1330171875,295.8589652514637L126.00276,302.0161457254058L126.80448062500001,307.22685907420737L127.62887531250001,311.63716712753336L128.3886703125,315.37042888374003L129.254135,318.530875044547L130.0802409375,321.2066068767327L130.8092334375,323.47211569819575L131.505284375,325.39040219422105L132.3241175,327.0147609735747L133.12156,288.20493799196737L133.87793250000001,295.5211055430785L134.6390109375,301.71690346649007L135.4124959375,306.96402993316553L136.3014903125,271.2335783154853L136.969305625,281.1452973486617L137.611024375,249.36889635054212L138.4020496875,222.45617006468822L139.1554275,239.83099266762318L139.8694465625,254.5467278839143L140.65619375,267.01042510480227L141.45534750000002,277.5667960826657L142.3319353125,286.5077692915087L143.1310890625,294.08057774829604L143.92810375,300.4946060108961L144.6746365625,265.7627954843018L145.59828375,236.34541425103328L146.39444281250002,251.59308106941472L147.0887825,224.34405982534386L147.88023562499998,241.42783278810623L148.74013875,215.73434684451422L149.399825625,234.13531177413606L150.22550375,249.72083863996883L150.89331906249998,262.9217150208739L151.6300121875,274.1028107742999L152.39194625000002,283.57316548856846L153.1684259375,291.5945319781859L153.878166875,298.3886122106013L154.6452346875,263.980467409452L155.366954375,274.99950665516076L156.1177653125,284.33261855208326L156.889966875,292.23775403814557L157.632649375,298.93339641226225L158.3406790625,304.6046002068194L159.106035625,269.24552536995077L159.7242246875,239.29640904859477L160.51353875,254.09207977943254L161.1496959375,266.62400686494055L161.8641428125,277.2385447850473L162.63677218750001,286.2290553032266L163.423519375,293.84401548804925L164.152511875,300.29388516902316L164.982468125,265.59440228037255L165.706326875,276.3664635847955L166.514036875,245.3278828115861L167.2918,259.20072122548214L168.064429375,270.9510140948943L168.900375,280.90351124621606L169.72862,249.1707677930092L170.46231843750002,262.45564253070813L171.173770625,233.5454251499383L172.01656125,209.05847217958106L172.74298687499999,228.48052789940215L173.57165968750002,244.93100853928047L174.2698496875,258.8645652432317L174.94878812500002,270.66628748593115L175.56697718750002,280.66234602064344L176.33789531250002,289.1290074525805L177.074160625,296.3002695799978L177.91010624999998,302.3743285262813L178.75033,307.51905639951946L179.5276653125,231.5516390474581L180.2660696875,247.53223858018256L181.02800375,261.0678062976489L182.0064109375,272.5324320921066L182.782890625,282.2429700953635L183.4425775,290.46779575209064L184.1608746875,297.4342230603588L184.99297,303.3347869739762L185.8464559375,228.00756411441387L186.6507434375,164.20540648024948L187.51834718749998,190.48997940205737L188.24562843750002,212.75301263481506L189.05847218750003,191.44730163581062L189.99409812500002,213.56386454345358L190.9682271875,232.29659330985896L192.1836425,248.16321456326156L193.3023721875,261.60224275646925L194.11821062500002,232.8225995759372L194.90495781250002,208.4462418129889L195.78582375,227.9619668344733L196.54091281249998,204.32928588944256L197.4564315625,224.47490516233358L198.55291499999998,241.53824468252284L199.3678978125,255.9908932532898L200.1439496875,187.90728655683614L200.82074906250003,210.5654717217303L201.5950896875,229.75695455410948L202.2967021875,205.84964050120686L202.99874250000002,225.76264550884252L203.71746750000003,242.62896074908903L204.5273165625,256.91472975670195L205.24219125000002,228.85227610022696L205.978884375,245.24587785872282L206.78744999999998,259.13125854765144L207.60457187499998,270.89217599080297L208.33655906250002,280.85367306488604L209.110471875,289.2910610864434L209.89336875,296.4375287405654L210.5936978125,262.32808684185255L211.44889500000002,273.59988955544276L212.218101875,283.1471064537424L213.01811125,291.2335991665224L214.052561875,217.7578584924853L214.78668812499998,235.84890614346023L215.929803125,251.17202350374407L216.8679959375,223.98820390732072L217.7518565625,241.12600870968785L218.89454375,255.64172937723987L220.06717781249998,267.9365447826185L220.9305034375,278.35025343094696L221.87297437499998,287.17066465606166L222.89672968749997,214.31655296333736L223.62443875,232.93412036002184L224.5754659375,248.70319994499235L225.48413968749998,262.05961035344717L226.4428675,273.37248996939746L227.535500625,282.9544990040995L228.5447103125,291.0704606564866L229.4183034375,297.94468017605436L230.67051062500002,303.7671441091254L231.71223406250002,308.69877106043447L232.397161875,312.87585908819176L233.610438125,316.41385264770116L234.8964425,319.4105331926048L235.836774375,321.9487216141377L237.1582871875,324.0985672071756L238.5803359375,325.91948642447846L239.63318249999998,327.4618050015338L241.0359796875,328.7681488362995L242.3305403125,289.7121220643363L243.54766687499998,296.79416738849426L244.82340375,262.6301597780487L246.057215,273.85574533200895L247.52375625,283.36381629621275L249.0540415625,251.25465240288884L250.39865625,224.0581905852444L251.78690781249998,241.18528742570334L253.21109562499998,255.69193844957164L254.602341875,267.9790718667878L255.96107437499998,278.3862738711698L257.4691134375,287.20117396888116L258.8607875,134.01739435163728L260.13652437499996,164.92073301583767L261.582530625,150.93336086441414L263.06532875,179.24855665215935L264.5237415625,203.2315274843794L265.9449346875,183.38260377926906L267.3669834375,206.73306540104116L268.89384624999997,226.51090639468208L270.302205,243.26273771629585L271.70029625,257.4515388457027L273.11721124999997,269.46945340231025L274.4763715625,279.64862703175686L275.93735125,288.27038709589806L277.5027171875,295.5730178702257L279.00904499999996,301.7583461360812L280.4221096875,306.9973191772608L281.8510034375,311.4347293431399L283.29914875000003,315.1932157536395L284.85638625,318.37665374333267L286.3284890625,280.91052572060266L287.8258328125,249.17671528535044L289.429701875,262.46067784669185L290.91421125,233.54969413614793L292.54332125,249.22459093331733L294.18312656250004,262.50122852051976L295.742503125,273.7465405568803L297.3912925,283.2713198516776L298.9874609375,291.33880791437093L300.7654496875,298.17197030347216L302.373596875,303.95965884704094L304.391160625,308.86183104344366L306.3081884375,272.8514708937968L308.208959375,282.51319584704584L309.9052359375,250.5341768824478L312.0122125,263.6104478194333L314.1517028125,274.68604930306003L316.09097687499997,284.06708375969185L318.3074734375,251.850319944459L320.28011687500003,264.72522099295674L322.1902996875,275.63026218103437L324.10262156249996,284.86683206733613L325.89045000000004,292.69020676103366L327.79507125,299.3166051265955L329.80750125,264.7666645422264L331.9067771875,275.66536486726574L334.0244490625,284.89656404257414L335.88415000000003,292.7153897440603L337.6848128125,299.33793511321903L339.7468690625,304.94723104089655L341.9287128125,309.69830469163935L343.93643687499997,313.7224640738185L346.03485718749994,317.1309270705243L347.9488903125,320.0178952287341L350.05715031249997,322.4631572587378L352.06573000000003,324.53429419815086L354.02767812499997,326.2885471858338L356.48888343749996,327.77439946640123L358.4174621875,288.87041634804183L360.2078575,296.08124264679145L362.1591103125,262.0263125218323L364.1989203125,233.18178670599198L366.02953,248.9129733399752L368.25244374999994,262.237288418959L370.4774965625,273.5229832908583L372.56607718749996,283.08196684735697L374.8523071875,291.17842591971134L377.013188125,298.0361267539955L379.21898937500004,103.03209936063416L381.44275875,98.51368815845711L383.59251656249995,-25.800906129786824L385.5390634375,29.55463250807054L387.516840625,76.44077373433578L389.29696843749997,116.15333535298237L391.2152796875,109.62737504397609L393.07540843749996,104.09988666224768L395.14987125000005,139.58060400292382L397.019411875,-31.17972840952359L398.9355840625,24.998770037133568L401.2183915625,72.58195822145217L403.169644375,112.88491861357L405.40496468749996,147.02152606569376L407.50338500000004,175.93523257764264L409.465333125,-0.38735800673674703L411.423003125,51.07990776829399L413.43586093749997,94.67268187974503L415.394814375,131.59576155214404L417.70885218750004,162.86961003466598L419.84663125000003,189.35855969936208L421.8072959375,211.7947000653597L424.1594090625,190.63561095535965L426.5406134375,172.71386247918957L428.7780728125,197.6966415198736L430.7109296875,218.85705536733295L433.07416593749997,236.779925896131L435.081034375,251.96059723402294L437.5063034375,264.81862585721746L439.602156875,275.7093761010632L441.63084375,124.28384155760051L443.8832765625,156.6764137992876L445.851641875,184.1129224879966L447.96204093750003,167.18914534733312L449.8153246875,193.01720610919116L451.77000000000004,214.89357357448492L454.06778093749995,233.42285681758872L456.0802109375,249.11715972449767L457.97456468750005,262.4102342866495L460.25095500000003,113.01946844079214L462.49654281249997,-13.51451023064908L464.3789178125,39.961209834640215L466.52268625,85.2551447299403L468.373403125,123.61910758625939L470.55439125,156.1133841255617L472.45173968750004,22.9860363543508L474.29860625000003,70.87717279213518L476.6631259375,111.4409653549385L477.9953340625,145.79849765563287L478.6447534375,174.89932751432104L479.243263125,199.54773040462993L479.9718278125,140.09992765272153L480.5425296875,170.07263872185516L481.5983709375,195.4595249974113L483.35753593749996,216.96221767280738L484.79883624999997,235.17499836886788L487.140681875,250.60122361843105L488.631180625,263.6672364048111L490.53066812500003,274.734149234875L492.901605,123.45782440193912L495.12622999999996,155.97677726844245L497.39919781249995,183.52033034637074L499.5151584375,6.037219803376047L501.7586071875,-104.12847482654047L504.1458009375,-36.78881817807974L506.3182328125,20.247871003166438L508.8081015625,68.557946739682L510.793579375,109.47658088851063L513.0922159375,103.9721640125685L515.4930996875,139.47242291864555L517.98853,8.891142212092745L520.3273809374999,58.938797453642565L522.72013625,61.166661443235284L524.6863625,103.2161622424203L526.8292753124999,138.83208941932995L529.4132628125001,168.99877973817246L531.5420578124999,194.5499664382321L533.62764375,216.19182157318258L536.04050625,194.35997287248566L537.83389625,216.03089702299536L539.940445,234.38616977847707L542.048705,209.77058580237008L544.8376146874999,229.08368617460744L547.100315,245.4418821898925L549.28900375,259.297274214839L551.5936296875,271.0327912599686L553.941036875,240.8102741971934L556.46598625,255.37430224502282L558.6088990625,267.7100340015343L561.0889281249999,278.15839879929956L563.549705625,287.00816378300675L565.8042775,294.5039147242067L568.3574625,300.8528157714031L570.7938546875,306.2303349583784L573.46212125,310.78509370974655L575.6597940625,314.6429743721553L578.139823125,157.2605992932155L580.37557125,184.60772760135353L583.5255546875,127.44574527834646L585.9165987499999,159.35454625075943L588.427858125,186.38130067439323L590.6109853125,8.460461671211078L592.7633099999999,58.57401103551581L595.1727500000001,60.857687347081935L597.54625375,102.95446118297838L599.97622875,98.44792862198267L602.76556625,134.7933955428193L605.321318125,165.57800602476794L607.5626278125001,151.49007110297848L610.11025125,179.7200902242228L612.6334893750001,203.6309164199167L615.2196159375,183.72088620766945L617.7646725,166.85709061789603L619.93967125,152.5734557533579L622.331143125,140.47521702309416L624.860370625,170.39050881856073L627.7117409374999,195.72876096932094L630.0920896875,217.19026054101485L632.4527590625,235.36815067823957L634.79332125,250.76482362446893L637.106075625,263.8058056099252L639.248560625,74.03901735160662L641.812013125,114.11904769681081L644.2492609375,148.0668333991987L646.4619071875001,136.6581078891213L649.0835421875,167.15741738208575L651.54645875,192.99033252262663" style="fill: none;" fill="none"></path></g></g></g></g><g opacity="0.2"><g><g><g><path stroke="rgb(0, 119, 187)" stroke-width="2px" d="M98.46361375,336L99.1271509375,336L99.8809565625,73.5L100.70791812499999,73.5L101.4202259375,336L102.29681375000001,336L103.03949625000001,73.5L103.74709812500001,336L104.601011875,336L105.3646571875,73.5L106.11931843750001,336L106.8508778125,336L107.64618125,336L108.4534634375,73.5L109.27743031250002,336L110.16343,336L110.90440125,336L111.621415,336L112.30249249999999,336L113.08239468749998,73.5L114.00433062500001,336L114.786371875,336L115.61033875000001,336L116.3346253125,336L117.15174718749999,336L117.887156875,336L118.62898375,336L119.4850365625,336L120.2431203125,336L121.0662315625,336L121.862390625,336L122.7013309375,336L123.5244421875,336L124.26241875,73.5L125.1330171875,336L126.00276,336L126.80448062500001,336L127.62887531250001,336L128.3886703125,336L129.254135,336L130.0802409375,336L130.8092334375,336L131.505284375,336L132.3241175,336L133.12156,73.5L133.87793250000001,336L134.6390109375,336L135.4124959375,336L136.3014903125,73.5L136.969305625,336L137.611024375,73.5L138.4020496875,73.5L139.1554275,336L139.8694465625,336L140.65619375,336L141.45534750000002,336L142.3319353125,336L143.1310890625,336L143.92810375,336L144.6746365625,73.5L145.59828375,73.5L146.39444281250002,336L147.0887825,73.5L147.88023562499998,336L148.74013875,73.5L149.399825625,336L150.22550375,336L150.89331906249998,336L151.6300121875,336L152.39194625000002,336L153.1684259375,336L153.878166875,336L154.6452346875,73.5L155.366954375,336L156.1177653125,336L156.889966875,336L157.632649375,336L158.3406790625,336L159.106035625,73.5L159.7242246875,73.5L160.51353875,336L161.1496959375,336L161.8641428125,336L162.63677218750001,336L163.423519375,336L164.152511875,336L164.982468125,73.5L165.706326875,336L166.514036875,73.5L167.2918,336L168.064429375,336L168.900375,336L169.72862,73.5L170.46231843750002,336L171.173770625,73.5L172.01656125,73.5L172.74298687499999,336L173.57165968750002,336L174.2698496875,336L174.94878812500002,336L175.56697718750002,336L176.33789531250002,336L177.074160625,336L177.91010624999998,336L178.75033,336L179.5276653125,-189.0000000000001L180.2660696875,336L181.02800375,336L182.0064109375,336L182.782890625,336L183.4425775,336L184.1608746875,336L184.99297,336L185.8464559375,-189.0000000000001L186.6507434375,-189.0000000000001L187.51834718749998,336L188.24562843750002,336L189.05847218750003,73.5L189.99409812500002,336L190.9682271875,336L192.1836425,336L193.3023721875,336L194.11821062500002,73.5L194.90495781250002,73.5L195.78582375,336L196.54091281249998,73.5L197.4564315625,336L198.55291499999998,336L199.3678978125,336L200.1439496875,-189.0000000000001L200.82074906250003,336L201.5950896875,336L202.2967021875,73.5L202.99874250000002,336L203.71746750000003,336L204.5273165625,336L205.24219125000002,73.5L205.978884375,336L206.78744999999998,336L207.60457187499998,336L208.33655906250002,336L209.110471875,336L209.89336875,336L210.5936978125,73.5L211.44889500000002,336L212.218101875,336L213.01811125,336L214.052561875,-189.0000000000001L214.78668812499998,336L215.929803125,336L216.8679959375,73.5L217.7518565625,336L218.89454375,336L220.06717781249998,336L220.9305034375,336L221.87297437499998,336L222.89672968749997,-189.0000000000001L223.62443875,336L224.5754659375,336L225.48413968749998,336L226.4428675,336L227.535500625,336L228.5447103125,336L229.4183034375,336L230.67051062500002,336L231.71223406250002,336L232.397161875,336L233.610438125,336L234.8964425,336L235.836774375,336L237.1582871875,336L238.5803359375,336L239.63318249999998,336L241.0359796875,336L242.3305403125,73.5L243.54766687499998,336L244.82340375,73.5L246.057215,336L247.52375625,336L249.0540415625,73.5L250.39865625,73.5L251.78690781249998,336L253.21109562499998,336L254.602341875,336L255.96107437499998,336L257.4691134375,336L258.8607875,-714.0000000000002L260.13652437499996,336L261.582530625,73.5L263.06532875,336L264.5237415625,336L265.9449346875,73.5L267.3669834375,336L268.89384624999997,336L270.302205,336L271.70029625,336L273.11721124999997,336L274.4763715625,336L275.93735125,336L277.5027171875,336L279.00904499999996,336L280.4221096875,336L281.8510034375,336L283.29914875000003,336L284.85638625,336L286.3284890625,73.5L287.8258328125,73.5L289.429701875,336L290.91421125,73.5L292.54332125,336L294.18312656250004,336L295.742503125,336L297.3912925,336L298.9874609375,336L300.7654496875,336L302.373596875,336L304.391160625,336L306.3081884375,73.5L308.208959375,336L309.9052359375,73.5L312.0122125,336L314.1517028125,336L316.09097687499997,336L318.3074734375,73.5L320.28011687500003,336L322.1902996875,336L324.10262156249996,336L325.89045000000004,336L327.79507125,336L329.80750125,73.5L331.9067771875,336L334.0244490625,336L335.88415000000003,336L337.6848128125,336L339.7468690625,336L341.9287128125,336L343.93643687499997,336L346.03485718749994,336L347.9488903125,336L350.05715031249997,336L352.06573000000003,336L354.02767812499997,336L356.48888343749996,336L358.4174621875,73.5L360.2078575,336L362.1591103125,73.5L364.1989203125,73.5L366.02953,336L368.25244374999994,336L370.4774965625,336L372.56607718749996,336L374.8523071875,336L377.013188125,336L379.21898937500004,-976.5L381.44275875,73.5L383.59251656249995,-714.0000000000002L385.5390634375,336L387.516840625,336L389.29696843749997,336L391.2152796875,73.5L393.07540843749996,73.5L395.14987125000005,336L397.019411875,-976.5L398.9355840625,336L401.2183915625,336L403.169644375,336L405.40496468749996,336L407.50338500000004,336L409.465333125,-976.5L411.423003125,336L413.43586093749997,336L415.394814375,336L417.70885218750004,336L419.84663125000003,336L421.8072959375,336L424.1594090625,73.5L426.5406134375,73.5L428.7780728125,336L430.7109296875,336L433.07416593749997,336L435.081034375,336L437.5063034375,336L439.602156875,336L441.63084375,-714.0000000000002L443.8832765625,336L445.851641875,336L447.96204093750003,73.5L449.8153246875,336L451.77000000000004,336L454.06778093749995,336L456.0802109375,336L457.97456468750005,336L460.25095500000003,-714.0000000000002L462.49654281249997,-714.0000000000002L464.3789178125,336L466.52268625,336L468.373403125,336L470.55439125,336L472.45173968750004,-714.0000000000002L474.29860625000003,336L476.6631259375,336L477.9953340625,336L478.6447534375,336L479.243263125,336L479.9718278125,-189.0000000000001L480.5425296875,336L481.5983709375,336L483.35753593749996,336L484.79883624999997,336L487.140681875,336L488.631180625,336L490.53066812500003,336L492.901605,-714.0000000000002L495.12622999999996,336L497.39919781249995,336L499.5151584375,-976.5L501.7586071875,-714.0000000000002L504.1458009375,336L506.3182328125,336L508.8081015625,336L510.793579375,336L513.0922159375,73.5L515.4930996875,336L517.98853,-714.0000000000002L520.3273809374999,336L522.72013625,73.5L524.6863625,336L526.8292753124999,336L529.4132628125001,336L531.5420578124999,336L533.62764375,336L536.04050625,73.5L537.83389625,336L539.940445,336L542.048705,73.5L544.8376146874999,336L547.100315,336L549.28900375,336L551.5936296875,336L553.941036875,73.5L556.46598625,336L558.6088990625,336L561.0889281249999,336L563.549705625,336L565.8042775,336L568.3574625,336L570.7938546875,336L573.46212125,336L575.6597940625,336L578.139823125,-714.0000000000002L580.37557125,336L583.5255546875,-189.0000000000001L585.9165987499999,336L588.427858125,336L590.6109853125,-976.5L592.7633099999999,336L595.1727500000001,73.5L597.54625375,336L599.97622875,73.5L602.76556625,336L605.321318125,336L607.5626278125001,73.5L610.11025125,336L612.6334893750001,336L615.2196159375,73.5L617.7646725,73.5L619.93967125,73.5L622.331143125,73.5L624.860370625,336L627.7117409374999,336L630.0920896875,336L632.4527590625,336L634.79332125,336L637.106075625,336L639.248560625,-976.5L641.812013125,336L644.2492609375,336L646.4619071875001,73.5L649.0835421875,336L651.54645875,336" style="fill: none;" fill="none"></path></g></g></g></g></g></g><g transform="translate(118, 378)" clip-path="url(#clip_1)"><clipPath id="clip_1"><rect width="684" height="22"></rect></clipPath><g><g><line x1="0" y1="0" x2="0" y2="5" style="visibility: inherit;" fill="rgb(0, 0, 0)" stroke="rgb(204, 204, 204)" stroke-width="1px"></line><line x1="85.5625" y1="0" x2="85.5625" y2="5" style="visibility: inherit;" fill="rgb(0, 0, 0)" stroke="rgb(204, 204, 204)" stroke-width="1px"></line><line x1="171.125" y1="0" x2="171.125" y2="5" style="visibility: inherit;" fill="rgb(0, 0, 0)" stroke="rgb(204, 204, 204)" stroke-width="1px"></line><line x1="256.6875" y1="0" x2="256.6875" y2="5" style="visibility: inherit;" fill="rgb(0, 0, 0)" stroke="rgb(204, 204, 204)" stroke-width="1px"></line><line x1="342.25" y1="0" x2="342.25" y2="5" style="visibility: inherit;" fill="rgb(0, 0, 0)" stroke="rgb(204, 204, 204)" stroke-width="1px"></line><line x1="427.8125" y1="0" x2="427.8125" y2="5" style="visibility: inherit;" fill="rgb(0, 0, 0)" stroke="rgb(204, 204, 204)" stroke-width="1px"></line><line x1="513.375" y1="0" x2="513.375" y2="5" style="visibility: inherit;" fill="rgb(0, 0, 0)" stroke="rgb(204, 204, 204)" stroke-width="1px"></line><line x1="598.9375" y1="0" x2="598.9375" y2="5" style="visibility: inherit;" fill="rgb(0, 0, 0)" stroke="rgb(204, 204, 204)" stroke-width="1px"></line><line x1="684.5" y1="0" x2="684.5" y2="5" style="visibility: inherit;" fill="rgb(0, 0, 0)" stroke="rgb(204, 204, 204)" stroke-width="1px"></line></g><g transform="translate(0, 8)"><text x="0" y="0" dx="0em" dy="0.95em" style="text-anchor: middle; visibility: hidden; font-family: &quot;Helvetica Neue&quot;, sans-serif; font-size: 12px; font-weight: 200;" fill="rgb(50, 49, 63)" stroke="none" stroke-width="1px">-200.0k</text><text x="85.5625" y="0" dx="0em" dy="0.95em" style="text-anchor: middle; visibility: inherit; font-family: &quot;Helvetica Neue&quot;, sans-serif; font-size: 12px; font-weight: 200;" fill="rgb(50, 49, 63)" stroke="none" stroke-width="1px">0.000</text><text x="171.125" y="0" dx="0em" dy="0.95em" style="text-anchor: middle; visibility: inherit; font-family: &quot;Helvetica Neue&quot;, sans-serif; font-size: 12px; font-weight: 200;" fill="rgb(50, 49, 63)" stroke="none" stroke-width="1px">200.0k</text><text x="256.6875" y="0" dx="0em" dy="0.95em" style="text-anchor: middle; visibility: inherit; font-family: &quot;Helvetica Neue&quot;, sans-serif; font-size: 12px; font-weight: 200;" fill="rgb(50, 49, 63)" stroke="none" stroke-width="1px">400.0k</text><text x="342.25" y="0" dx="0em" dy="0.95em" style="text-anchor: middle; visibility: inherit; font-family: &quot;Helvetica Neue&quot;, sans-serif; font-size: 12px; font-weight: 200;" fill="rgb(50, 49, 63)" stroke="none" stroke-width="1px">600.0k</text><text x="427.8125" y="0" dx="0em" dy="0.95em" style="text-anchor: middle; visibility: inherit; font-family: &quot;Helvetica Neue&quot;, sans-serif; font-size: 12px; font-weight: 200;" fill="rgb(50, 49, 63)" stroke="none" stroke-width="1px">800.0k</text><text x="513.375" y="0" dx="0em" dy="0.95em" style="text-anchor: middle; visibility: inherit; font-family: &quot;Helvetica Neue&quot;, sans-serif; font-size: 12px; font-weight: 200;" fill="rgb(50, 49, 63)" stroke="none" stroke-width="1px">1.000M</text><text x="598.9375" y="0" dx="0em" dy="0.95em" style="text-anchor: middle; visibility: inherit; font-family: &quot;Helvetica Neue&quot;, sans-serif; font-size: 12px; font-weight: 200;" fill="rgb(50, 49, 63)" stroke="none" stroke-width="1px">1.200M</text><text x="684.5" y="0" dx="0em" dy="0.95em" style="text-anchor: middle; visibility: hidden; font-family: &quot;Helvetica Neue&quot;, sans-serif; font-size: 12px; font-weight: 200;" fill="rgb(50, 49, 63)" stroke="none" stroke-width="1px">1.400M</text></g><line x1="0" y1="0" x2="684.5" y2="0" fill="rgb(0, 0, 0)" stroke="rgb(204, 204, 204)" stroke-width="1px"></line></g></g></g></g></svg>