<svg viewBox="0 0 330 200" xmlns="http://www.w3.org/2000/svg"><g><g><g><g><g><line x1="118" y1="178" x2="113" y2="178" style="visibility: inherit;" fill="rgb(0, 0, 0)" stroke="rgb(204, 204, 204)" stroke-width="1px"></line><line x1="118" y1="163.16666666666666" x2="113" y2="163.16666666666666" style="visibility: inherit;" fill="rgb(0, 0, 0)" stroke="rgb(204, 204, 204)" stroke-width="1px"></line><line x1="118" y1="148.33333333333331" x2="113" y2="148.33333333333331" style="visibility: inherit;" fill="rgb(0, 0, 0)" stroke="rgb(204, 204, 204)" stroke-width="1px"></line><line x1="118" y1="133.5" x2="113" y2="133.5" style="visibility: inherit;" fill="rgb(0, 0, 0)" stroke="rgb(204, 204, 204)" stroke-width="1px"></line><line x1="118" y1="118.66666666666666" x2="113" y2="118.66666666666666" style="visibility: inherit;" fill="rgb(0, 0, 0)" stroke="rgb(204, 204, 204)" stroke-width="1px"></line><line x1="118" y1="103.83333333333333" x2="113" y2="103.83333333333333" style="visibility: inherit;" fill="rgb(0, 0, 0)" stroke="rgb(204, 204, 204)" stroke-width="1px"></line><line x1="118" y1="88.99999999999999" x2="113" y2="88.99999999999999" style="visibility: inherit;" fill="rgb(0, 0, 0)" stroke="rgb(204, 204, 204)" stroke-width="1px"></line><line x1="118" y1="74.16666666666669" x2="113" y2="74.16666666666669" style="visibility: inherit;" fill="rgb(0, 0, 0)" stroke="rgb(204, 204, 204)" stroke-width="1px"></line><line x1="118" y1="59.333333333333314" x2="113" y2="59.333333333333314" style="visibility: inherit;" fill="rgb(0, 0, 0)" stroke="rgb(204, 204, 204)" stroke-width="1px"></line><line x1="118" y1="44.5" x2="113" y2="44.5" style="visibility: inherit;" fill="rgb(0, 0, 0)" stroke="rgb(204, 204, 204)" stroke-width="1px"></line><line x1="118" y1="29.666666666666686" x2="113" y2="29.666666666666686" style="visibility: inherit;" fill="rgb(0, 0, 0)" stroke="rgb(204, 204, 204)" stroke-width="1px"></line><line x1="118" y1="14.833333333333314" x2="113" y2="14.833333333333314" style="visibility: inherit;" fill="rgb(0, 0, 0)" stroke="rgb(204, 204, 204)" stroke-width="1px"></line><line x1="118" y1="0" x2="113" y2="0" style="visibility: inherit;" fill="rgb(0, 0, 0)" stroke="rgb(204, 204, 204)" stroke-width="1px"></line></g><g transform="translate(108, 0)"><text x="0" y="178" dx="0em" dy="0.3em" style="text-anchor: end; visibility: hidden; font-family: &quot;Helvetica Neue&quot;, sans-serif; font-size: 12px; font-weight: 200;" fill="rgb(50, 49, 63)" stroke="none" stroke-width="1px">-5.000e-3</text><text x="0" y="163.16666666666666" dx="0em" dy="0.3em" style="text-anchor: end; visibility: inherit; font-family: &quot;Helvetica Neue&quot;, sans-serif; font-size: 12px; font-weight: 200;" fill="rgb(50, 49, 63)" stroke="none" stroke-width="1px">0.00</text><text x="0" y="148.33333333333331" dx="0em" dy="0.3em" style="text-anchor: end; visibility: hidden; font-family: &quot;Helvetica Neue&quot;, sans-serif; font-size: 12px; font-weight: 200;" fill="rgb(50, 49, 63)" stroke="none" stroke-width="1px">5.000e-3</text><text x="0" y="133.5" dx="0em" dy="0.3em" style="text-anchor: end; visibility: inherit; font-family: &quot;Helvetica Neue&quot;, sans-serif; font-size: 12px; font-weight: 200;" fill="rgb(50, 49, 63)" stroke="none" stroke-width="1px">0.0100</text><text x="0" y="118.66666666666666" dx="0em" dy="0.3em" style="text-anchor: end; visibility: hidden; font-family: &quot;Helvetica Neue&quot;, sans-serif; font-size: 12px; font-weight: 200;" fill="rgb(50, 49, 63)" stroke="none" stroke-width="1px">0.0150</text><text x="0" y="103.83333333333333" dx="0em" dy="0.3em" style="text-anchor: end; visibility: inherit; font-family: &quot;Helvetica Neue&quot;, sans-serif; font-size: 12px; font-weight: 200;" fill="rgb(50, 49, 63)" stroke="none" stroke-width="1px">0.0200</text><text x="0" y="88.99999999999999" dx="0em" dy="0.3em" style="text-anchor: end; visibility: hidden; font-family: &quot;Helvetica Neue&quot;, sans-serif; font-size: 12px; font-weight: 200;" fill="rgb(50, 49, 63)" stroke="none" stroke-width="1px">0.0250</text><text x="0" y="74.16666666666669" dx="0em" dy="0.3em" style="text-anchor: end; visibility: inherit; font-family: &quot;Helvetica Neue&quot;, sans-serif; font-size: 12px; font-weight: 200;" fill="rgb(50, 49, 63)" stroke="none" stroke-width="1px">0.0300</text><text x="0" y="59.333333333333314" dx="0em" dy="0.3em" style="text-anchor: end; visibility: hidden; font-family: &quot;Helvetica Neue&quot;, sans-serif; font-size: 12px; font-weight: 200;" fill="rgb(50, 49, 63)" stroke="none" stroke-width="1px">0.0350</text><text x="0" y="44.5" dx="0em" dy="0.3em" style="text-anchor: end; visibility: inherit; font-family: &quot;Helvetica Neue&quot;, sans-serif; font-size: 12px; font-weight: 200;" fill="rgb(50, 49, 63)" stroke="none" stroke-width="1px">0.0400</text><text x="0" y="29.666666666666686" dx="0em" dy="0.3em" style="text-anchor: end; visibility: hidden; font-family: &quot;Helvetica Neue&quot;, sans-serif; font-size: 12px; font-weight: 200;" fill="rgb(50, 49, 63)" stroke="none" stroke-width="1px">0.0450</text><text x="0" y="14.833333333333314" dx="0em" dy="0.3em" style="text-anchor: end; visibility: inherit; font-family: &quot;Helvetica Neue&quot;, sans-serif; font-size: 12px; font-weight: 200;" fill="rgb(50, 49, 63)" stroke="none" stroke-width="1px">0.0500</text><text x="0" y="0" dx="0em" dy="0.3em" style="text-anchor: end; visibility: hidden; font-family: &quot;Helvetica Neue&quot;, sans-serif; font-size: 12px; font-weight: 200;" fill="rgb(50, 49, 63)" stroke="none" stroke-width="1px">0.0550</text></g><line x1="118" y1="0" x2="118" y2="178" fill="rgb(0, 0, 0)" stroke="rgb(204, 204, 204)" stroke-width="1px"></line></g></g><g transform="translate(118, 0)" clip-path="url(#clip_0)"><clipPath id="clip_0"><rect width="212" height="178"></rect></clipPath><g><g><g><line x1="0" y1="0" x2="0" y2="178" fill="rgb(0, 0, 0)" stroke="rgb(60, 60, 60)" stroke-width="1px" opacity="0.25"></line><line x1="17.666666666666664" y1="0" x2="17.666666666666664" y2="178" fill="rgb(0, 0, 0)" stroke="rgb(60, 60, 60)" stroke-width="1px" opacity="0.25"></line><line x1="35.33333333333333" y1="0" x2="35.33333333333333" y2="178" fill="rgb(0, 0, 0)" stroke="rgb(60, 60, 60)" stroke-width="1px" opacity="0.25"></line><line x1="53" y1="0" x2="53" y2="178" fill="rgb(0, 0, 0)" stroke="rgb(60, 60, 60)" stroke-width="1px" opacity="0.25"></line><line x1="70.66666666666666" y1="0" x2="70.66666666666666" y2="178" fill="rgb(0, 0, 0)" stroke="rgb(60, 60, 60)" stroke-width="1px" opacity="0.25"></line><line x1="88.33333333333334" y1="0" x2="88.33333333333334" y2="178" fill="rgb(0, 0, 0)" stroke="rgb(60, 60, 60)" stroke-width="1px" opacity="0.25"></line><line x1="106" y1="0" x2="106" y2="178" fill="rgb(0, 0, 0)" stroke="rgb(60, 60, 60)" stroke-width="1px" opacity="0.25"></line><line x1="123.66666666666667" y1="0" x2="123.66666666666667" y2="178" fill="rgb(0, 0, 0)" stroke="rgb(60, 60, 60)" stroke-width="1px" opacity="0.25"></line><line x1="141.33333333333331" y1="0" x2="141.33333333333331" y2="178" fill="rgb(0, 0, 0)" stroke="rgb(60, 60, 60)" stroke-width="1px" opacity="0.25"></line><line x1="159" y1="0" x2="159" y2="178" fill="rgb(0, 0, 0)" stroke="rgb(60, 60, 60)" stroke-width="1px" opacity="0.25"></line><line x1="176.66666666666669" y1="0" x2="176.66666666666669" y2="178" fill="rgb(0, 0, 0)" stroke="rgb(60, 60, 60)" stroke-width="1px" opacity="0.25"></line><line x1="194.33333333333331" y1="0" x2="194.33333333333331" y2="178" fill="rgb(0, 0, 0)" stroke="rgb(60, 60, 60)" stroke-width="1px" opacity="0.25"></line><line x1="212" y1="0" x2="212" y2="178" fill="rgb(0, 0, 0)" stroke="rgb(60, 60, 60)" stroke-width="1px" opacity="0.25"></line></g><g><line x1="0" y1="178" x2="212" y2="178" fill="rgb(0, 0, 0)" stroke="rgb(60, 60, 60)" stroke-width="1px" opacity="0.25"></line><line x1="0" y1="163.16666666666666" x2="212" y2="163.16666666666666" fill="rgb(0, 0, 0)" stroke="rgb(60, 60, 60)" stroke-width="1px" opacity="0.25"></line><line x1="0" y1="148.33333333333331" x2="212" y2="148.33333333333331" fill="rgb(0, 0, 0)" stroke="rgb(60, 60, 60)" stroke-width="1px" opacity="0.25"></line><line x1="0" y1="133.5" x2="212" y2="133.5" fill="rgb(0, 0, 0)" stroke="rgb(60, 60, 60)" stroke-width="1px" opacity="0.25"></line><line x1="0" y1="118.66666666666666" x2="212" y2="118.66666666666666" fill="rgb(0, 0, 0)" stroke="rgb(60, 60, 60)" stroke-width="1px" opacity="0.25"></line><line x1="0" y1="103.83333333333333" x2="212" y2="103.83333333333333" fill="rgb(0, 0, 0)" stroke="rgb(60, 60, 60)" stroke-width="1px" opacity="0.25"></line><line x1="0" y1="88.99999999999999" x2="212" y2="88.99999999999999" fill="rgb(0, 0, 0)" stroke="rgb(60, 60, 60)" stroke-width="1px" opacity="0.25"></line><line x1="0" y1="74.16666666666669" x2="212" y2="74.16666666666669" fill="rgb(0, 0, 0)" stroke="rgb(60, 60, 60)" stroke-width="1px" opacity="0.25"></line><line x1="0" y1="59.333333333333314" x2="212" y2="59.333333333333314" fill="rgb(0, 0, 0)" stroke="rgb(60, 60, 60)" stroke-width="1px" opacity="0.25"></line><line x1="0" y1="44.5" x2="212" y2="44.5" fill="rgb(0, 0, 0)" stroke="rgb(60, 60, 60)" stroke-width="1px" opacity="0.25"></line><line x1="0" y1="29.666666666666686" x2="212" y2="29.666666666666686" fill="rgb(0, 0, 0)" stroke="rgb(60, 60, 60)" stroke-width="1px" opacity="0.25"></line><line x1="0" y1="14.833333333333314" x2="212" y2="14.833333333333314" fill="rgb(0, 0, 0)" stroke="rgb(60, 60, 60)" stroke-width="1px" opacity="0.25"></line><line x1="0" y1="0" x2="212" y2="0" fill="rgb(0, 0, 0)" stroke="rgb(60, 60, 60)" stroke-width="1px" opacity="0.25"></line></g></g></g><g><g><line x1="0" y1="163.16666666666666" x2="212" y2="163.16666666666666" fill="rgb(0, 0, 0)" stroke="rgb(153, 153, 153)" stroke-width="1.5px"></line></g></g><g><g><line x1="17.666666666666664" y1="0" x2="17.666666666666664" y2="178" fill="rgb(0, 0, 0)" stroke="rgb(153, 153, 153)" stroke-width="1.5px"></line></g></g><g><g><g><g><g><path stroke="rgb(51, 187, 238)" stroke-width="2px" d="M22.201965,139.0683610451718L22.38667,140.20597758485624L22.519435,139.8744313296716L22.686738333333334,139.91120969289548L22.847681666666666,140.2090768503478L23.016045000000002,140.20483283377482L23.192535,140.01502188453438L23.336076666666667,139.91839062253445L23.49931666666667,139.47065152211763L23.672538333333332,138.94868665888262L23.822175,138.6432140849759L23.966688333333334,138.56257088323338L24.116501666666665,138.5359328818252L24.266756666666666,138.57541353485445L24.420103333333333,138.43595313505844L24.573715,138.54222177144143L24.727415,138.6286202564217L24.880055,138.76752629034374L25.037818333333334,138.82411083511604L25.212983333333334,138.87508511310295L25.381788333333333,138.9822020456175L25.534163333333336,139.0538688029306L25.694488333333336,139.1064711468413L25.88467,139.22303348322706L26.068403333333332,139.21671804305504L26.208058333333334,139.25081074847898L26.378365,139.26093962055472L26.539661666666667,139.29401403319608L26.679581666666667,139.2835891704202L26.86525833333333,139.34060301017195L27.037243333333333,139.43985937837928L27.186791666666664,139.47732416721828L27.382096666666666,139.48228389157285L27.536414999999998,139.48102803206876L27.693736666666666,139.49720129205633L27.857418333333335,139.5322368372151L28.03346666666667,139.56377937735778L28.22303,139.5174380137292L28.412593333333337,139.49262599455358L28.59721,139.49828719879176L28.748701666666665,139.5055895901877L28.930315,139.53413997584911L29.110073333333332,139.56020771262405L29.285503333333335,139.5744801548984L29.447065000000002,139.56120878733256L29.615516666666664,139.5271308125657L29.773986666666666,139.44358879833715L29.965051666666668,139.3746171350819L30.133856666666667,139.30146493596985L30.326069999999998,139.22293871094612L30.492401666666666,139.1654708536453L30.67004,139.0935823635449L30.837431666666667,139.03682031976314L31.004823333333338,138.94788037834832L31.19615333333333,138.90388161946296L31.395168333333334,138.8456037511962L31.569626666666668,138.77908002161206L31.729333333333333,138.72906785054934L31.927553333333332,138.65813391264635L32.10369,138.59519090964213L32.27435,138.5134327325055L32.465415,138.4639114447134L32.65206333333334,138.42426540897472L32.846043333333334,138.3722849147291L33.01105,138.31762281895305L33.15618166666666,138.26800709271802L33.345745,138.2049134823941L33.53239333333333,138.16261453498976L33.749605,138.1117002262845L33.913198333333334,138.07160850281565L34.12369666666667,138.02572858233282L34.29047,137.98397930949346L34.47393833333333,137.9277053931718L34.6726,137.8544002906103L34.858806666666666,137.81057195279712L35.05384666666667,137.72634196726708L35.243851666666664,137.6695210875962L35.465745,137.619701998446L35.65645666666667,137.56850287785943L35.84372333333333,137.55203788114082L36.03505333333333,137.4983621227691L36.214369999999995,137.45602005350287L36.394216666666665,137.42127723521608L36.590846666666664,137.38537803109458L36.790745,137.35324324905457L36.986756666666665,137.2473712478454L37.190895,137.16360797371715L37.3915,137.05986312311637L37.60774,136.96909620979477L37.78749833333333,136.8727015119933L38.011335,136.78073927087445L38.197806666666665,136.69888755623217L38.37535666666666,136.6254738511267L38.566156666666664,136.5243723601077L38.771355,136.44771745314043L38.98300166666667,136.37639402504666L39.199506666666665,136.28281743172352L39.39154333333333,136.2012514730903L39.569446666666664,136.10380490535175L39.805385,136.0329878012161L40.005725,135.94960737406137L40.202178333333336,135.8867469952241L40.44756833333333,135.81374823306413L40.62715,135.7444416647419L40.835175,135.66048773717472L41.01882,135.55239790583602L41.204231666666665,135.46808197292657L41.393971666666665,135.40805316086394L41.614275,135.33677102148005L41.835815000000004,135.27422473044874L42.06504,135.21534397678585L42.28357666666667,135.13533020800557L42.483563333333336,135.06610600870573L42.719413333333335,134.98143451495005L42.94996333333333,134.87906109640818L43.15772333333334,134.76701696872604L43.364158333333336,134.6461941942169L43.56767833333333,134.55877632118822L43.757418333333334,134.46822267006374L43.99954,134.35082508959692L44.244665,134.2300858587324L44.487228333333334,134.10873746665115L44.72016333333333,133.9808136306711L44.954335,133.86250164205876L45.16501,133.7638111661576L45.38072,133.67866297418095L45.61374333333334,133.54176980766186L45.81311166666667,133.43200577653963L45.9987,133.32462061558675L46.211936666666666,133.18355596382128L46.428353333333334,133.0601500386121L46.62365833333333,132.94058455362654L46.86207,132.84937991302053L47.10463333333333,132.7668278566053L47.323346666666666,132.6595913048218L47.573859999999996,132.5453277642904L47.827465000000004,132.42475262922315L48.05872166666666,132.27849602535724L48.32928666666667,132.15444940329806L48.56301666666667,132.0421594296965L48.79233,131.93551324894466L49.00530166666667,131.85106553836926L49.27109666666667,131.75802692545014L49.521168333333335,131.66236902985509L49.77424333333333,131.55514551727097L49.984300000000005,131.43978021012617L50.228365000000004,131.2986609114222L50.50255166666667,131.19912480302725L50.717025,131.0778098339125L50.957114999999995,130.94294679965284L51.236336666666666,130.81375075661563L51.46626833333334,130.6992121643827L51.706093333333335,130.5856334963643L51.95113,130.4339465364339L52.20252666666667,130.31701150573423L52.452245,130.20296199790914L52.688006666666666,130.09854134473568L52.93887333333333,130.00760766647278L53.208555000000004,129.8754546172342L53.462248333333335,129.75911640238292L53.725746666666666,129.60689214584147L53.95514833333333,129.45576460888137L54.20133333333333,129.33124448247838L54.438066666666664,129.2086443089729L54.680365,129.0799926126968L54.918335,128.95618223180202L55.167170000000006,128.83709132838146L55.397454999999994,128.70300462296345L55.631184999999995,128.54103419552686L55.881256666666665,128.3566717517601L56.121964999999996,128.21190675967296L56.34650833333333,128.0587110730411L56.61203833333333,127.87800876770824L56.83667,127.69577201142555L57.10811833333333,127.52475818654683L57.37409,127.32822596029911L57.607820000000004,127.13816005734486L57.900821666666666,126.97733427185545L58.1622,126.81959251969295L58.432323333333336,126.64229184484027L58.682395,126.48331642555522L58.93635333333333,126.30870489124851L59.204975000000005,126.10848227447904L59.44842166666666,125.91448359870893L59.71969333333333,125.73673201611032L59.950066666666665,125.56998416191573L60.21966,125.40869911505521L60.46460833333334,125.23297036038085L60.731375,125.08900469002869L61.04681333333334,124.87097529197382L61.311725,124.6748587158798L61.56956999999999,124.49423389737679L61.84101833333333,124.28544773025239L62.08649666666667,124.11591399329656L62.36925166666666,123.9197161299055L62.6354,123.74503918848825L62.901106666666664,123.59208410598272L63.18483333333333,123.43846245825748L63.45089333333333,123.29583516848362L63.696195,123.14927333374189L63.98310166666667,123.01413334029534L64.27539666666667,122.83698580484165L64.52493833333332,122.66354718747081L64.80831166666667,122.48930575664248L65.09945833333333,122.31470310121023L65.37532333333334,122.14424913036372L65.63219666666667,121.955537024086L65.92431499999999,121.76593260443923L66.16935166666667,121.61667743559708L66.399725,121.46700090558943L66.67488333333333,121.31447772617113L66.921775,121.14282687615338L67.20285166666667,120.93824587431142L67.46352333333333,120.73593059827839L67.71492,120.54446816335093L67.975415,120.37077910983547L68.24094500000001,120.19821647276869L68.53226833333333,120.01177460384602L68.815465,119.79239528238116L69.08461666666666,119.52454450245304L69.35279666666666,119.30419135450684L69.60604833333333,119.10209960108615L69.906735,118.92509206552674L70.20106166666667,118.74998575450601L70.465885,118.58928221167102L70.72373,118.43320524911664L70.995885,118.29351771207999L71.27387,118.12286871025373L71.56846166666666,117.94220457732327L71.81941666666667,117.77835311498035L72.07911666666666,117.63349692079896L72.380245,117.49348312747561L72.65920166666666,117.33662760684143L72.95900499999999,117.17291624801904L73.229305,116.99863388115693L73.527165,116.82441447163342L73.80532666666666,116.6577789335532L74.08711,116.49483610684173L74.36907,116.35178277687925L74.658185,116.18588125187176L74.952865,116.0045356937926L75.23941833333333,115.81134646070089L75.53401000000001,115.60873458742353L75.84194,115.37398484921009L76.12425333333333,115.12586725895932L76.40117833333333,114.89554350562094L76.68340333333333,114.69775188557624L76.93674333333334,114.49761708334478L77.22992166666667,114.29133077416057L77.48264333333333,114.0809645411565L77.76637,113.87043363395496L78.05504333333333,113.66859886075952L78.32693333333333,113.48389991537272L78.626825,113.28665408640427L78.90648833333333,113.08310686538213L79.20920666666667,112.88383328411734L79.50468166666666,112.6629317273324L79.76994666666667,112.46389274714144L80.03583,112.27849516322863L80.31717166666667,112.08536797692766L80.60036833333332,111.91158078569407L80.88647999999999,111.72842810625772L81.18964,111.5188413723803L81.50207499999999,111.30515983985839L81.77953,111.06685172887829L82.07323833333334,110.85469872676642L82.36447333333332,110.66284292592591L82.674435,110.43468608252597L82.960105,110.23084302122827L83.24648166666667,110.02842345064144L83.528265,109.80549946958975L83.82144333333333,109.5874228618651L84.08494166666667,109.36155442747132L84.36487,109.17399756820593L84.65036333333333,108.98273781167424L84.97375166666667,108.77045738434964L85.29228166666667,108.51970137895847L85.588905,108.24437467897955L85.90761166666667,107.99260631488774L86.20114333333333,107.76279313139327L86.50439166666666,107.55721801284278L86.76992166666666,107.32497175393496L87.06522000000001,107.08999589596984L87.37694833333333,106.85044473815837L87.65546333333333,106.62431923990773L87.98309166666667,106.38451708522634L88.28757666666667,106.15578530232426L88.58278666666666,105.92558379868855L88.87190166666667,105.7127313379458L89.16923166666666,105.47728131198951L89.46983,105.26339282185276L89.74799166666666,105.01673144454027L90.026595,104.77650159609873L90.35183833333333,104.51485543953909L90.64227833333332,104.26212028468173L90.95091500000001,103.98752466919733L91.24895166666667,103.72029598801957L91.538685,103.48864661504602L91.84864666666667,103.25581926315888L92.13882166666666,103.04418295150914L92.42316666666667,102.83042988991292L92.72738666666667,102.57988221138051L93.042825,102.31990753227075L93.35623166666667,102.02469347683747L93.68562666666666,101.71786235631401L93.98330999999999,101.4603008599732L94.314825,101.18655154337408L94.61427499999999,100.92560404676152L94.92052666666667,100.65770519855393L95.23022333333333,100.39356844573878L95.55166833333332,100.1469977574527L95.8611,99.92399002474426L96.177245,99.71875386255113L96.4812,99.51503647059477L96.78665666666667,99.29846213970745L97.112165,99.09224537639318L97.41611999999999,98.8703718501041L97.720605,98.60102896795928L98.05141333333333,98.32447235329704L98.36729333333334,98.04398536012822L98.72451333333333,97.72954997614774L99.022285,97.44062556244384L99.33392500000001,97.16784765969187L99.66844333333334,96.9158159890799L99.99236166666667,96.63635754380792L100.31477833333334,96.36020125326019L100.65106333333334,96.10838162328702L100.965795,95.85042216932317L101.29695666666666,95.55696099234943L101.64013166666666,95.26926880220567L101.95910333333333,94.98320121252533L102.28134333333333,94.6838848522345L102.60111,94.4206801254177L102.93889666666666,94.16955171815299L103.29231833333333,93.91083109751389L103.621625,93.6258894068502L103.96056,93.31777507339932L104.29198666666667,93.00212956135482L104.61502166666666,92.69179250894989L104.98602166666666,92.34836002945308L105.34350666666666,92.00768648143254L105.68102833333334,91.69602786733095L106.09531166666667,91.33558077355256L106.45633,90.98265168313203L106.82618166666668,90.60197349832863L107.21060833333334,90.21442660657414L107.56818166666666,89.85771057983942L107.95729,89.50206676014686L108.30408666666668,89.12564808063759L108.73162,88.71112013319961L109.13627500000001,88.34043244298198L109.55276666666667,87.96945189898749L109.95141500000001,87.61031546572171L110.36039833333334,87.24764713771735L110.78007000000001,86.84777717368361L111.21528833333333,86.43937432215546L111.62144500000001,86.05658871101896L112.04005666666667,85.68954257071549L112.46008166666665,85.27574887713116L112.87975333333333,84.82940419121775L113.32813333333333,84.4007333344471L113.74259333333333,83.98856838005295L114.14247833333333,83.5757282850594L114.56683166666667,83.14277793431981L115.02113,82.72061191378853L115.44636666666668,82.31884604719573L115.85005,81.92661260780072L116.25956333333332,81.53857128053731L116.61024666666667,81.1284949862748L117.01808166666667,80.75724898281433L117.40692500000002,80.36090578339143L117.86731833333333,79.94923018436616L118.27144333333332,79.53022067161989L118.72671333333334,79.0836243554707L119.14603166666666,78.65353599636289L119.54618166666667,78.2256847457997L119.970535,77.79945426306598L120.41273166666667,77.39589955879134L120.84848,77.02296551052461L121.27636666666666,76.6211247065687L121.70301666666666,76.1935604543899L122.10608166666668,75.74858166961357L122.515065,75.28858760508986L122.94719166666665,74.84374116666969L123.37949499999999,74.4154940355292L123.82222166666666,74.00362310261356L124.30416833333334,73.5509478655507L124.726225,73.14277472339371L125.13017333333333,72.74585256919642L125.57396,72.34346225427814L126.00078666666667,71.94635389586624L126.38441833333334,71.53736451371711L126.79278333333335,71.11654070578537L127.17915333333333,70.67580290772034L127.62532499999999,70.24405967675156L128.06080833333334,69.8545241702547L128.48957833333333,69.42762808694145L128.97496999999998,68.9756499888124L129.44516833333333,68.49199651250971L129.83613166666666,68.04634687048038L130.2568633333333,67.64745076144838L130.70277,67.21451835222108L131.16457666666668,66.77475774717567L131.56234166666667,66.3722821897203L131.97017666666665,66.0063989813686L132.421295,65.59358818067476L132.87029333333334,65.13621568918248L133.290495,64.71243959410997L133.71264,64.26724486198431L134.12065166666665,63.83647452978137L134.540765,63.439110212650945L134.92943166666666,63.0289040822548L135.37224666666668,62.6117311170953L135.77372166666666,62.23037634400073L136.18500166666666,61.85056638781752L136.6245483333333,61.436101286001175L137.04316,61.01339782181611L137.49472,60.56973964514273L137.95281666666665,60.1718394848224L138.39395333333331,59.77822536185482L138.77290333333335,59.37426122002857L139.22561166666665,58.96904706740213L139.65067166666665,58.58684847226043L140.12634666666665,58.16973892134608L140.53153166666667,57.73573655852981L140.97046,57.33340485872414L141.38748166666667,56.92114664106519L141.85591333333335,56.513484670652645L142.29086666666666,56.09789124961716L142.73589,55.712157286222904L143.22243,55.30413293263284L143.68344166666668,54.85761163286942L144.12192833333333,54.40762881628221L144.59725,53.918948194532874L145.08016833333335,53.452480195651034L145.51883166666667,52.997253210558256L145.94283166666668,52.57353989156907L146.38476333333332,52.18379602157769L146.78791666666666,51.79787396186808L147.23806333333334,51.373247622217036L147.71506333333332,50.95510566955723L148.1716583333333,50.53458140726437L148.59212499999998,50.134470328304474L149.12141833333334,49.69110554930367L149.57562833333333,49.27188367134411L150.05059666666668,48.89605876695762L150.44262,48.536559817542525L150.90601666666666,48.14963875453665L151.35316,47.75693151895797L151.81337666666667,47.325029082365404L152.25221666666667,46.92886429067508L152.70236333333332,46.511031635817204L153.12062166666666,46.101806536247125L153.58799333333332,45.71741356547463L154.08062833333335,45.32989234782727L154.536075,44.93755001062635L155.01987666666668,44.55784926355568L155.49996833333333,44.18139236494315L155.99896333333334,43.766852537737776L156.48797666666667,43.37443450884808L157.01621,42.940764918705554L157.50946333333334,42.53159074273549L157.93107833333335,42.13854169420506L158.34165166666668,41.76752793732547L158.82421666666667,41.38468337422569L159.30793,40.988781253691286L159.76964833333332,40.59475682786848L160.227745,40.210695953836534L160.82205166666665,39.798967431984636L161.31124166666666,39.403121462068356L161.80484833333333,39.004577428460976L162.27972833333334,38.65504015904318L162.75231166666666,38.325592579970674L163.25969833333335,37.94097356748375L163.74208666666667,37.55823693922238L164.26961333333333,37.178813556339804L164.74581833333332,36.82782261540876L165.25470666666666,36.47892714522516L165.714835,36.149900011115676L166.23520666666667,35.80288799319274L166.70575833333334,35.441791640005164L167.14592333333334,35.11164618707596L167.67618833333336,34.77224752809744L168.1584,34.408442754583405L168.58884833333335,34.07508964679849L169.09323166666667,33.76684632703987L169.582775,33.46043779137926L170.05880333333334,33.13347764621096L170.53651,32.800618621567395L171.11509333333333,32.43182996284534L171.67777666666666,32.06361785752517L172.14249833333332,31.71425222092634L172.603775,31.386468120815977L173.070175,31.048685204030647L173.53595666666666,30.737094373131725L174.006685,30.45979448196786L174.53421166666666,30.176779383644458L175.05476,29.90079890542725L175.55154666666667,29.608836701632555L176.03526,29.31151163048804L176.60792500000002,29.01807286819175L177.2119483333333,28.694098151606454L177.66713,28.391132633019737L178.13706333333332,28.117703829286086L178.62625333333332,27.843987213022046L179.16826666666665,27.58655167208903L179.75011833333335,27.336506451686972L180.319515,27.096324015967497L180.91426333333334,26.824974184818558L181.48666333333333,26.534866447600223L182.02099166666667,26.279076734395346L182.5426,26.01122670921376L183.08796999999998,25.74785971374922L183.6079,25.505674231439514L184.12305999999998,25.248316442006654L184.59705666666665,24.97933990261984L185.26927333333333,24.71323696276764L185.75263333333334,24.45416299602124L186.327595,24.180965020859617L186.91094833333335,23.891096703969055L187.43167333333332,23.634637238241822L187.96503,23.379041762147892L188.585395,23.103090239163947L189.17219333333333,22.877194755830402L189.78752333333335,22.645565192038617L190.26761499999998,22.415229725918067L190.8159,22.15672854070715L191.32010666666667,21.8860050011765L191.82440166666666,21.644188765829284L192.435845,21.406967678156775" style="fill: none;" fill="none"></path></g></g></g></g><g opacity="0.2"><g><g><g><path stroke="rgb(51, 187, 238)" stroke-width="2px" d="M22.201965,139.0683610451718L22.38667,140.8885475086669L22.519435,139.55614692469436L22.686738333333334,139.95446104804674L22.847681666666666,140.59797221111754L23.016045000000002,140.19896183100838L23.192535,139.74358919014531L23.336076666666667,139.77750131487846L23.49931666666667,138.81032331784564L23.672538333333332,138.17362966885167L23.822175,138.18777583787838L23.966688333333334,138.44204493736225L24.116501666666665,138.4960628574093L24.266756666666666,138.634557167689L24.420103333333333,138.2269264658292L24.573715,138.7015497771402L24.727415,138.75818142294884L24.880055,138.97585007299978L25.037818333333334,138.90897903218865L25.212983333333334,138.95154187083244L25.381788333333333,139.1428715698421L25.534163333333336,139.16136658067504L25.694488333333336,139.18537362416583L25.88467,139.3978756070137L26.068403333333332,139.20724492768446L26.208058333333334,139.30194966122508L26.378365,139.27613290275136L26.539661666666667,139.34362560138106L26.679581666666667,139.26795188585916L26.86525833333333,139.42612373828888L27.037243333333333,139.5887438977758L27.186791666666664,139.53352134302258L27.382096666666666,139.4897234775126L27.536414999999998,139.47914424290258L27.693736666666666,139.5214611813426L27.857418333333335,139.58479015404978L28.03346666666667,139.61109318708378L28.22303,139.44792596871653L28.412593333333337,139.45540796592832L28.59721,139.5067790051301L28.748701666666665,139.5165431772669L28.930315,139.5769655543069L29.110073333333332,139.59930931776762L29.285503333333335,139.59588881830373L29.447065000000002,139.54130173598725L29.615516666666664,139.4760138504207L29.773986666666666,139.31827577700216L29.965051666666668,139.2711596402029L30.133856666666667,139.19173663730422L30.326069999999998,139.10514937341213L30.492401666666666,139.07926906769472L30.67004,138.98574962839484L30.837431666666667,138.9516772540907L31.004823333333338,138.81447046622634L31.19615333333333,138.83788348113495L31.395168333333334,138.7581869487961L31.569626666666668,138.6792944272359L31.729333333333333,138.65404959395528L31.927553333333332,138.5517330057919L32.10369,138.50077640513578L32.27435,138.3907954668005L32.465415,138.38962951302528L32.65206333333334,138.3647963553667L32.846043333333334,138.29431417336065L33.01105,138.23562967528898L33.15618166666666,138.19358350336552L33.345745,138.11027306690812L33.53239333333333,138.09916611388326L33.749605,138.03532876322666L33.913198333333334,138.01147091761231L34.12369666666667,137.95690870160857L34.29047,137.92135540023446L34.47393833333333,137.8432945186893L34.6726,137.744442636768L34.858806666666666,137.74482944607735L35.05384666666667,137.599996988972L35.243851666666664,137.58428976808983L35.465745,137.54497336472073L35.65645666666667,137.49170419697958L35.84372333333333,137.52734038606286L36.03505333333333,137.41784848521152L36.214369999999995,137.39250694960356L36.394216666666665,137.36916300778586L36.590846666666664,137.33152922491232L36.790745,137.30504107599455L36.986756666666665,137.08856324603158L37.190895,137.0379630625248L37.3915,136.90424584721524L37.60774,136.83294583981234L37.78749833333333,136.72810946529108L38.011335,136.64279590919614L38.197806666666665,136.57610998426873L38.37535666666666,136.51535329346854L38.566156666666664,136.3727201235791L38.771355,136.33273509268957L38.98300166666667,136.26940888290602L39.199506666666665,136.14245254173875L39.39154333333333,136.07890253514051L39.569446666666664,135.9576350537439L39.805385,135.92676214501262L40.005725,135.8245367333293L40.202178333333336,135.79245642696816L40.44756833333333,135.7042500898242L40.62715,135.64048181225854L40.835175,135.53455684582391L41.01882,135.39026315882802L41.204231666666665,135.34160807356238L41.393971666666665,135.31800994277L41.614275,135.22984781240422L41.835815000000004,135.18040529390174L42.06504,135.12702284629145L42.28357666666667,135.01530955483514L42.483563333333336,134.96226970975596L42.719413333333335,134.85442727431655L42.94996333333333,134.72550096859533L43.15772333333334,134.59895077720284L43.364158333333336,134.46496003245312L43.56767833333333,134.42764951164523L43.757418333333334,134.33239219337702L43.99954,134.1747287188967L44.244665,134.04897701243559L44.487228333333334,133.9267148785293L44.72016333333333,133.78892787670094L44.954335,133.68503365914026L45.16501,133.61577545230585L45.38072,133.55094068621594L45.61374333333334,133.33643005788326L45.81311166666667,133.26735972985625L45.9987,133.16354287415743L46.211936666666666,132.97195898617306L46.428353333333334,132.87504115079838L46.62365833333333,132.7612363261481L46.86207,132.71257295211154L47.10463333333333,132.64299977198243L47.323346666666666,132.49873647714654L47.573859999999996,132.37393245349327L47.827465000000004,132.2438899266223L48.05872166666666,132.0591111195584L48.32928666666667,131.96837947020927L48.56301666666667,131.87372446929413L48.79233,131.77554397781688L49.00530166666667,131.7243939725061L49.27109666666667,131.61846900607148L49.521168333333335,131.51888218646246L49.77424333333333,131.3943102483948L49.984300000000005,131.26673224940896L50.228365000000004,131.08698196336627L50.50255166666667,131.0498206404348L50.717025,130.89583738024035L50.957114999999995,130.74065224826336L51.236336666666666,130.61995669205982L51.46626833333334,130.52740427603322L51.706093333333335,130.41526549433667L51.95113,130.2064160965383L52.20252666666667,130.14160895968476L52.452245,130.03188773617148L52.688006666666666,129.9419103649755L52.93887333333333,129.87120714907843L53.208555000000004,129.67722504337627L53.462248333333335,129.58460908010602L53.725746666666666,129.3785557610293L53.95514833333333,129.2290733034412L54.20133333333333,129.14446429287392L54.438066666666664,129.02474404871464L54.680365,128.88701506828266L54.918335,128.77046666045982L55.167170000000006,128.65845497325063L55.397454999999994,128.5018745648364L55.631184999999995,128.29807855437198L55.881256666666665,128.08012808610994L56.121964999999996,127.99475927154222L56.34650833333333,127.82891754309335L56.61203833333333,127.60695530970891L56.83667,127.42241687700152L57.10811833333333,127.26823744922876L57.37409,127.03342762092748L57.607820000000004,126.85306120291352L57.900821666666666,126.73609559362133L58.1622,126.58297989144921L58.432323333333336,126.37634083256125L58.682395,126.2448532966276L58.93635333333333,126.04678758978844L59.204975000000005,125.80814834932485L59.44842166666666,125.62348558505376L59.71969333333333,125.47010464221239L59.950066666666665,125.31986238062382L60.21966,125.16677154476443L60.46460833333334,124.96937722836931L60.731375,124.87305618450046L61.04681333333334,124.54393119489153L61.311725,124.38068385173877L61.56956999999999,124.22329666962226L61.84101833333333,123.97226847956577L62.08649666666667,123.86161338786283L62.36925166666666,123.62541933481891L62.6354,123.48302377636233L62.901106666666664,123.36265148222446L63.18483333333333,123.20802998666962L63.45089333333333,123.08189423382282L63.696195,122.92943058162928L63.98310166666667,122.81142335012555L64.27539666666667,122.57126450166106L64.52493833333332,122.4033892614146L64.80831166666667,122.22794361039996L65.09945833333333,122.05279911806186L65.37532333333334,121.88856817409396L65.63219666666667,121.6724688646694L65.92431499999999,121.48152597496906L66.16935166666667,121.39279468233386L66.399725,121.24248611057797L66.67488333333333,121.08569295704365L66.921775,120.88535060112675L67.20285166666667,120.63137437154849L67.46352333333333,120.43245768422881L67.71492,120.25727451095977L67.975415,120.11024552956223L68.24094500000001,119.93937251716852L68.53226833333333,119.73211180046201L68.815465,119.46332630018392L69.08461666666666,119.12276833256085L69.35279666666666,118.97366163258751L69.60604833333333,118.79896197095513L69.906735,118.65958076218763L70.20106166666667,118.48732628797491L70.465885,118.3482268974185L70.72373,118.19908980528513L70.995885,118.08398640652497L71.27387,117.86689520751436L71.56846166666666,117.67120837792754L71.81941666666667,117.53257592146595L72.07911666666666,117.41621262952685L72.380245,117.28346243749061L72.65920166666666,117.10134432589014L72.95900499999999,116.92734920978546L73.229305,116.73721033086379L73.527165,116.56308535734811L73.80532666666666,116.4078256264329L74.08711,116.25042186677456L74.36907,116.13720278193553L74.658185,115.93702896436055L74.952865,115.73251735667387L75.23941833333333,115.52156261106332L75.53401000000001,115.30481677750745L75.84194,115.02186024188995L76.12425333333333,114.75369087358315L76.40117833333333,114.55005787561336L76.68340333333333,114.40106445550919L76.93674333333334,114.19741487999757L77.22992166666667,113.98190131038426L77.48264333333333,113.76541519165038L77.76637,113.55463727315266L78.05504333333333,113.36584670096634L78.32693333333333,113.2068514972925L78.626825,112.99078534295161L78.90648833333333,112.77778603384891L79.20920666666667,112.58492291222015L79.50468166666666,112.331579392155L79.76994666666667,112.16533427685498L80.03583,112.00039878735939L80.31717166666667,111.79567719747622L80.60036833333332,111.65089999884366L80.88647999999999,111.4536990871032L81.18964,111.20446127156416L81.50207499999999,110.98463754107554L81.77953,110.70938956240812L82.07323833333334,110.53646922359863L82.36447333333332,110.37505922466515L82.674435,110.09245081742604L82.960105,109.9250784292817L83.24648166666667,109.72479409476121L83.528265,109.47111349801222L83.82144333333333,109.26030795027812L84.08494166666667,109.02275177588065L84.36487,108.89266227930783L84.65036333333333,108.6958481768767L84.97375166666667,108.45203674336274L85.29228166666667,108.1435673708717L85.588905,107.83138462901114L85.90761166666667,107.61495376875003L86.20114333333333,107.41807335615157L86.50439166666666,107.24885533501704L86.76992166666666,106.97660236557324L87.06522000000001,106.73753210902213L87.37694833333333,106.49111800144115L87.65546333333333,106.28513099253176L87.98309166666667,106.02481385320424L88.28757666666667,105.81268762797116L88.58278666666666,105.58028154323497L88.87190166666667,105.39345264683166L89.16923166666666,105.12410627305506L89.46983,104.94256008664766L89.74799166666666,104.6467393785715L90.026595,104.41615682343641L90.35183833333333,104.12238620469967L90.64227833333332,103.88301755239566L90.95091500000001,103.57563124597071L91.24895166666667,103.31945296625295L91.538685,103.1411725555857L91.84864666666667,102.90657823532818L92.13882166666666,102.72672848403452L92.42316666666667,102.50980029751857L92.72738666666667,102.2040606935819L93.042825,101.92994551360606L93.35623166666667,101.58187239368756L93.68562666666666,101.25761567552884L93.98330999999999,101.07395861546198L94.314825,100.7759275684754L94.61427499999999,100.53418280184268L94.92052666666667,100.2558569262425L95.23022333333333,99.99736331651607L95.55166833333332,99.77714172502358L95.8611,99.58947842568158L96.177245,99.41089961926141L96.4812,99.20946038266023L96.78665666666667,98.9736006433765L97.112165,98.78292023142178L97.41611999999999,98.53756156067053L97.720605,98.197014644742L98.05141333333333,97.90963743130365L98.36729333333334,97.62325487037499L98.72451333333333,97.25789690017699L99.022285,97.007238941888L99.33392500000001,96.75868080556391L99.66844333333334,96.53776848316191L99.99236166666667,96.21716987589994L100.31477833333334,95.94596681743859L100.65106333333334,95.73065217832723L100.965795,95.46348298837741L101.29695666666666,95.1167692268888L101.64013166666666,94.83773051699002L101.95910333333333,94.55409982800482L102.28134333333333,94.23491031179825L102.60111,94.02587303519248L102.93889666666666,93.79285910725592L103.29231833333333,93.52275016655524L103.621625,93.19847687085469L103.96056,92.85560357322295L104.29198666666667,92.52866129328807L104.61502166666666,92.22628693034251L104.98602166666666,91.83321131020783L105.34350666666666,91.49667615940173L105.68102833333334,91.22853994617859L106.09531166666667,90.79491013288497L106.45633,90.45325804750124L106.82618166666668,90.03095622112353L107.21060833333334,89.63310626894234L107.56818166666666,89.32263653973737L107.95729,88.968601030608L108.30408666666668,88.56102006137371L108.73162,88.08932821204263L109.13627500000001,87.78440090765554L109.55276666666667,87.41298108299571L109.95141500000001,87.07161081582308L110.36039833333334,86.70364464571077L110.78007000000001,86.247972227633L111.21528833333333,85.82677004486322L111.62144500000001,85.4824102943142L112.04005666666667,85.13897336026034L112.46008166666665,84.65505833675465L112.87975333333333,84.15988716234764L113.32813333333333,83.75772704929113L113.74259333333333,83.37032094846171L114.14247833333333,82.95646814256907L114.56683166666667,82.49335240821046L115.02113,82.08736288299164L115.44636666666668,81.71619724730652L115.85005,81.33826244870824L116.25956333333332,80.95650928964218L116.61024666666667,80.51338054488104L117.01808166666667,80.20037997762364L117.40692500000002,79.76639098425707L117.86731833333333,79.33171678582829L118.27144333333332,78.90170640250048L118.72671333333334,78.4137298812469L119.14603166666666,78.0084034577012L119.54618166666667,77.58390786995491L119.970535,77.1601085389654L120.41273166666667,76.79056750237942L120.84848,76.46356443812451L121.27636666666666,76.01836350063485L121.70301666666666,75.55221407612166L122.10608166666668,75.08111349244913L122.515065,74.5985965083043L122.94719166666665,74.1764715090394L123.37949499999999,73.77312333881855L123.82222166666666,73.3858167032401L124.30416833333334,72.87193500995636L124.726225,72.53051501015824L125.13017333333333,72.15046933790049L125.57396,71.73987678190073L126.00078666666667,71.35069135824841L126.38441833333334,70.92388044049343L126.79278333333335,70.48530499388775L127.17915333333333,70.01469621062279L127.62532499999999,69.59644483029842L128.06080833333334,69.27022091050944L128.48957833333333,68.78728396197161L128.97496999999998,68.29768284161887L129.44516833333333,67.76651629805565L129.83613166666666,67.37787240743637L130.2568633333333,67.04910659790039L130.70277,66.5651197383801L131.16457666666668,66.11511683960757L131.56234166666667,65.76856885353723L131.97017666666665,65.45757416884103L132.421295,64.97437197963396L132.87029333333334,64.45015695194402L133.290495,64.07677545150122L133.71264,63.59945276379585L134.12065166666665,63.190319031476974L134.540765,62.843063736955315L134.92943166666666,62.413594886660576L135.37224666666668,61.98597166935602L135.77372166666666,61.658344184358924L136.18500166666666,61.28085145354271L136.6245483333333,60.81440363327661L137.04316,60.3793426255385L137.49472,59.904252380132675L137.95281666666665,59.57498924434185L138.39395333333331,59.18780417740345L138.77290333333335,58.76831500728926L139.22561166666665,58.3612258384625L139.65067166666665,58.01355057954788L140.12634666666665,57.54407459497452L140.53153166666667,57.08473301430544L140.97046,56.7299073090156L141.38748166666667,56.302759314576775L141.85591333333335,55.90199171503386L142.29086666666666,55.47450111806393L142.73589,55.13355634113154L143.22243,54.692096402247756L143.68344166666668,54.18782968322435L144.12192833333333,53.73265459140143L144.59725,53.18592726190886L145.08016833333335,52.75277819732824L145.51883166666667,52.31441273291907L145.94283166666668,51.93796991308531L146.38476333333332,51.599180216590554L146.78791666666666,51.218990872303635L147.23806333333334,50.73630811274052L147.71506333333332,50.327892740567535L148.1716583333333,49.90379501382509L148.59212499999998,49.534303709864616L149.12141833333334,49.02605838080248L149.57562833333333,48.64305085440478L150.05059666666668,48.33232141037783L150.44262,47.99731139341989L150.90601666666666,47.56925716002783L151.35316,47.16787066558996L151.81337666666667,46.677175427476556L152.25221666666667,46.33461710313955L152.70236333333332,45.88428265353045L153.12062166666666,45.48796888689199L153.58799333333332,45.14082410931587L154.08062833333335,44.748610521356255L154.536075,44.349036504824966L155.01987666666668,43.98829814294973L155.49996833333333,43.61670701702437L155.99896333333334,43.14504279692969L156.48797666666667,42.78580746551356L157.01621,42.29026053349176L157.50946333333334,41.91782947878042L157.93107833333335,41.548968121409416L158.34165166666668,41.211007302006095L158.82421666666667,40.810416529575974L159.30793,40.394928072889655L159.76964833333332,40.00372018913427L160.227745,39.63460464278856L160.82205166666665,39.18137464920679L161.31124166666666,38.80935250719389L161.80484833333333,38.40676137804985L162.27972833333334,38.13073425491652L162.75231166666666,37.831421211361885L163.25969833333335,37.36404504875341L163.74208666666667,36.984131996830314L164.26961333333333,36.60967848201594L164.74581833333332,36.301336204012244L165.25470666666666,35.95558393994966L165.714835,35.656359309951455L166.23520666666667,35.282369966308266L166.70575833333334,34.90014711022377L167.14592333333334,34.616428007682174L167.67618833333336,34.26314953962961L168.1584,33.86273559431234L168.58884833333335,33.5750599851211L169.09323166666667,33.304481347401946L169.582775,33.000824987888336L170.05880333333334,32.64303742845854L170.53651,32.30133008460203L171.11509333333333,31.87864697476229L171.67777666666666,31.511299699544907L172.14249833333332,31.190203766028077L172.603775,30.894791970650346L173.070175,30.542010828852654L173.53595666666666,30.26970812678337L174.006685,30.043844645222038L174.53421166666666,29.752256736159325L175.05476,29.48682818810144L175.55154666666667,29.170893395940453L176.03526,28.865524023771286L176.60792500000002,28.57791472474733L177.2119483333333,28.208136076728493L177.66713,27.936684355139732L178.13706333333332,27.70756062368551L178.62625333333332,27.433412288626045L179.16826666666665,27.20039836068949L179.75011833333335,26.961438621083886L180.319515,26.736050362388283L180.91426333333334,26.417949438095093L181.48666333333333,26.099704841772706L182.02099166666667,25.895392164587975L182.5426,25.609451671441406L183.08796999999998,25.352809220552444L183.6079,25.142396007974952L184.12305999999998,24.862279757857323L184.59705666666665,24.575875093539565L185.26927333333333,24.314082552989333L185.75263333333334,24.065552045901626L186.327595,23.77116805811724L186.91094833333335,23.456294228633254L187.43167333333332,23.249948039650917L187.96503,22.99564854800701L188.585395,22.689162954688072L189.17219333333333,22.538351530830056L189.78752333333335,22.298120846350997L190.26761499999998,22.069726526737213L190.8159,21.768976762890816L191.32010666666667,21.479919691880554L191.82440166666666,21.28146441280842L192.435845,21.051136046648026" style="fill: none;" fill="none"></path></g></g></g></g></g></g><g transform="translate(118, 178)" clip-path="url(#clip_1)"><clipPath id="clip_1"><rect width="212" height="22"></rect></clipPath><g><g><line x1="0" y1="0" x2="0" y2="5" style="visibility: inherit;" fill="rgb(0, 0, 0)" stroke="rgb(204, 204, 204)" stroke-width="1px"></line><line x1="17.666666666666664" y1="0" x2="17.666666666666664" y2="5" style="visibility: inherit;" fill="rgb(0, 0, 0)" stroke="rgb(204, 204, 204)" stroke-width="1px"></line><line x1="35.33333333333333" y1="0" x2="35.33333333333333" y2="5" style="visibility: inherit;" fill="rgb(0, 0, 0)" stroke="rgb(204, 204, 204)" stroke-width="1px"></line><line x1="53" y1="0" x2="53" y2="5" style="visibility: inherit;" fill="rgb(0, 0, 0)" stroke="rgb(204, 204, 204)" stroke-width="1px"></line><line x1="70.66666666666666" y1="0" x2="70.66666666666666" y2="5" style="visibility: inherit;" fill="rgb(0, 0, 0)" stroke="rgb(204, 204, 204)" stroke-width="1px"></line><line x1="88.33333333333334" y1="0" x2="88.33333333333334" y2="5" style="visibility: inherit;" fill="rgb(0, 0, 0)" stroke="rgb(204, 204, 204)" stroke-width="1px"></line><line x1="106" y1="0" x2="106" y2="5" style="visibility: inherit;" fill="rgb(0, 0, 0)" stroke="rgb(204, 204, 204)" stroke-width="1px"></line><line x1="123.66666666666667" y1="0" x2="123.66666666666667" y2="5" style="visibility: inherit;" fill="rgb(0, 0, 0)" stroke="rgb(204, 204, 204)" stroke-width="1px"></line><line x1="141.33333333333331" y1="0" x2="141.33333333333331" y2="5" style="visibility: inherit;" fill="rgb(0, 0, 0)" stroke="rgb(204, 204, 204)" stroke-width="1px"></line><line x1="159" y1="0" x2="159" y2="5" style="visibility: inherit;" fill="rgb(0, 0, 0)" stroke="rgb(204, 204, 204)" stroke-width="1px"></line><line x1="176.66666666666669" y1="0" x2="176.66666666666669" y2="5" style="visibility: inherit;" fill="rgb(0, 0, 0)" stroke="rgb(204, 204, 204)" stroke-width="1px"></line><line x1="194.33333333333331" y1="0" x2="194.33333333333331" y2="5" style="visibility: inherit;" fill="rgb(0, 0, 0)" stroke="rgb(204, 204, 204)" stroke-width="1px"></line><line x1="212" y1="0" x2="212" y2="5" style="visibility: inherit;" fill="rgb(0, 0, 0)" stroke="rgb(204, 204, 204)" stroke-width="1px"></line></g><g transform="translate(0, 8)"><text x="0" y="0" dx="0em" dy="0.95em" style="text-anchor: middle; visibility: hidden; font-family: &quot;Helvetica Neue&quot;, sans-serif; font-size: 12px; font-weight: 200;" fill="rgb(50, 49, 63)" stroke="none" stroke-width="1px">-200.0k</text><text x="17.666666666666664" y="0" dx="0em" dy="0.95em" style="text-anchor: middle; visibility: inherit; font-family: &quot;Helvetica Neue&quot;, sans-serif; font-size: 12px; font-weight: 200;" fill="rgb(50, 49, 63)" stroke="none" stroke-width="1px">0.000</text><text x="35.33333333333333" y="0" dx="0em" dy="0.95em" style="text-anchor: middle; visibility: hidden; font-family: &quot;Helvetica Neue&quot;, sans-serif; font-size: 12px; font-weight: 200;" fill="rgb(50, 49, 63)" stroke="none" stroke-width="1px">200.0k</text><text x="53" y="0" dx="0em" dy="0.95em" style="text-anchor: middle; visibility: hidden; font-family: &quot;Helvetica Neue&quot;, sans-serif; font-size: 12px; font-weight: 200;" fill="rgb(50, 49, 63)" stroke="none" stroke-width="1px">400.0k</text><text x="70.66666666666666" y="0" dx="0em" dy="0.95em" style="text-anchor: middle; visibility: inherit; font-family: &quot;Helvetica Neue&quot;, sans-serif; font-size: 12px; font-weight: 200;" fill="rgb(50, 49, 63)" stroke="none" stroke-width="1px">600.0k</text><text x="88.33333333333334" y="0" dx="0em" dy="0.95em" style="text-anchor: middle; visibility: hidden; font-family: &quot;Helvetica Neue&quot;, sans-serif; font-size: 12px; font-weight: 200;" fill="rgb(50, 49, 63)" stroke="none" stroke-width="1px">800.0k</text><text x="106" y="0" dx="0em" dy="0.95em" style="text-anchor: middle; visibility: hidden; font-family: &quot;Helvetica Neue&quot;, sans-serif; font-size: 12px; font-weight: 200;" fill="rgb(50, 49, 63)" stroke="none" stroke-width="1px">1.000M</text><text x="123.66666666666667" y="0" dx="0em" dy="0.95em" style="text-anchor: middle; visibility: inherit; font-family: &quot;Helvetica Neue&quot;, sans-serif; font-size: 12px; font-weight: 200;" fill="rgb(50, 49, 63)" stroke="none" stroke-width="1px">1.200M</text><text x="141.33333333333331" y="0" dx="0em" dy="0.95em" style="text-anchor: middle; visibility: hidden; font-family: &quot;Helvetica Neue&quot;, sans-serif; font-size: 12px; font-weight: 200;" fill="rgb(50, 49, 63)" stroke="none" stroke-width="1px">1.400M</text><text x="159" y="0" dx="0em" dy="0.95em" style="text-anchor: middle; visibility: hidden; font-family: &quot;Helvetica Neue&quot;, sans-serif; font-size: 12px; font-weight: 200;" fill="rgb(50, 49, 63)" stroke="none" stroke-width="1px">1.600M</text><text x="176.66666666666669" y="0" dx="0em" dy="0.95em" style="text-anchor: middle; visibility: inherit; font-family: &quot;Helvetica Neue&quot;, sans-serif; font-size: 12px; font-weight: 200;" fill="rgb(50, 49, 63)" stroke="none" stroke-width="1px">1.800M</text><text x="194.33333333333331" y="0" dx="0em" dy="0.95em" style="text-anchor: middle; visibility: hidden; font-family: &quot;Helvetica Neue&quot;, sans-serif; font-size: 12px; font-weight: 200;" fill="rgb(50, 49, 63)" stroke="none" stroke-width="1px">2.000M</text><text x="212" y="0" dx="0em" dy="0.95em" style="text-anchor: middle; visibility: hidden; font-family: &quot;Helvetica Neue&quot;, sans-serif; font-size: 12px; font-weight: 200;" fill="rgb(50, 49, 63)" stroke="none" stroke-width="1px">2.200M</text></g><line x1="0" y1="0" x2="212" y2="0" fill="rgb(0, 0, 0)" stroke="rgb(204, 204, 204)" stroke-width="1px"></line></g></g></g></g></svg>