<svg viewBox="0 0 330 200" xmlns="http://www.w3.org/2000/svg"><g><g><g><g><g><line x1="70" y1="178" x2="65" y2="178" style="visibility: inherit;" fill="rgb(0, 0, 0)" stroke="rgb(204, 204, 204)" stroke-width="1px"></line><line x1="70" y1="155.75" x2="65" y2="155.75" style="visibility: inherit;" fill="rgb(0, 0, 0)" stroke="rgb(204, 204, 204)" stroke-width="1px"></line><line x1="70" y1="133.5" x2="65" y2="133.5" style="visibility: inherit;" fill="rgb(0, 0, 0)" stroke="rgb(204, 204, 204)" stroke-width="1px"></line><line x1="70" y1="111.25" x2="65" y2="111.25" style="visibility: inherit;" fill="rgb(0, 0, 0)" stroke="rgb(204, 204, 204)" stroke-width="1px"></line><line x1="70" y1="89" x2="65" y2="89" style="visibility: inherit;" fill="rgb(0, 0, 0)" stroke="rgb(204, 204, 204)" stroke-width="1px"></line><line x1="70" y1="66.75" x2="65" y2="66.75" style="visibility: inherit;" fill="rgb(0, 0, 0)" stroke="rgb(204, 204, 204)" stroke-width="1px"></line><line x1="70" y1="44.5" x2="65" y2="44.5" style="visibility: inherit;" fill="rgb(0, 0, 0)" stroke="rgb(204, 204, 204)" stroke-width="1px"></line><line x1="70" y1="22.25" x2="65" y2="22.25" style="visibility: inherit;" fill="rgb(0, 0, 0)" stroke="rgb(204, 204, 204)" stroke-width="1px"></line><line x1="70" y1="0" x2="65" y2="0" style="visibility: inherit;" fill="rgb(0, 0, 0)" stroke="rgb(204, 204, 204)" stroke-width="1px"></line></g><g transform="translate(60, 0)"><text x="0" y="178" dx="0em" dy="0.3em" style="text-anchor: end; visibility: hidden; font-family: &quot;Helvetica Neue&quot;, sans-serif; font-size: 12px; font-weight: 200;" fill="rgb(50, 49, 63)" stroke="none" stroke-width="1px">-2.00</text><text x="0" y="155.75" dx="0em" dy="0.3em" style="text-anchor: end; visibility: inherit; font-family: &quot;Helvetica Neue&quot;, sans-serif; font-size: 12px; font-weight: 200;" fill="rgb(50, 49, 63)" stroke="none" stroke-width="1px">0.00</text><text x="0" y="133.5" dx="0em" dy="0.3em" style="text-anchor: end; visibility: hidden; font-family: &quot;Helvetica Neue&quot;, sans-serif; font-size: 12px; font-weight: 200;" fill="rgb(50, 49, 63)" stroke="none" stroke-width="1px">2.00</text><text x="0" y="111.25" dx="0em" dy="0.3em" style="text-anchor: end; visibility: inherit; font-family: &quot;Helvetica Neue&quot;, sans-serif; font-size: 12px; font-weight: 200;" fill="rgb(50, 49, 63)" stroke="none" stroke-width="1px">4.00</text><text x="0" y="89" dx="0em" dy="0.3em" style="text-anchor: end; visibility: hidden; font-family: &quot;Helvetica Neue&quot;, sans-serif; font-size: 12px; font-weight: 200;" fill="rgb(50, 49, 63)" stroke="none" stroke-width="1px">6.00</text><text x="0" y="66.75" dx="0em" dy="0.3em" style="text-anchor: end; visibility: inherit; font-family: &quot;Helvetica Neue&quot;, sans-serif; font-size: 12px; font-weight: 200;" fill="rgb(50, 49, 63)" stroke="none" stroke-width="1px">8.00</text><text x="0" y="44.5" dx="0em" dy="0.3em" style="text-anchor: end; visibility: hidden; font-family: &quot;Helvetica Neue&quot;, sans-serif; font-size: 12px; font-weight: 200;" fill="rgb(50, 49, 63)" stroke="none" stroke-width="1px">10.0</text><text x="0" y="22.25" dx="0em" dy="0.3em" style="text-anchor: end; visibility: inherit; font-family: &quot;Helvetica Neue&quot;, sans-serif; font-size: 12px; font-weight: 200;" fill="rgb(50, 49, 63)" stroke="none" stroke-width="1px">12.0</text><text x="0" y="0" dx="0em" dy="0.3em" style="text-anchor: end; visibility: hidden; font-family: &quot;Helvetica Neue&quot;, sans-serif; font-size: 12px; font-weight: 200;" fill="rgb(50, 49, 63)" stroke="none" stroke-width="1px">14.0</text></g><line x1="70" y1="0" x2="70" y2="178" fill="rgb(0, 0, 0)" stroke="rgb(204, 204, 204)" stroke-width="1px"></line></g></g><g transform="translate(70, 0)" clip-path="url(#clip_0)"><clipPath id="clip_0"><rect width="260" height="178"></rect></clipPath><g><g><g><line x1="0" y1="0" x2="0" y2="178" fill="rgb(0, 0, 0)" stroke="rgb(60, 60, 60)" stroke-width="1px" opacity="0.25"></line><line x1="21.666666666666664" y1="0" x2="21.666666666666664" y2="178" fill="rgb(0, 0, 0)" stroke="rgb(60, 60, 60)" stroke-width="1px" opacity="0.25"></line><line x1="43.33333333333333" y1="0" x2="43.33333333333333" y2="178" fill="rgb(0, 0, 0)" stroke="rgb(60, 60, 60)" stroke-width="1px" opacity="0.25"></line><line x1="65" y1="0" x2="65" y2="178" fill="rgb(0, 0, 0)" stroke="rgb(60, 60, 60)" stroke-width="1px" opacity="0.25"></line><line x1="86.66666666666666" y1="0" x2="86.66666666666666" y2="178" fill="rgb(0, 0, 0)" stroke="rgb(60, 60, 60)" stroke-width="1px" opacity="0.25"></line><line x1="108.33333333333334" y1="0" x2="108.33333333333334" y2="178" fill="rgb(0, 0, 0)" stroke="rgb(60, 60, 60)" stroke-width="1px" opacity="0.25"></line><line x1="130" y1="0" x2="130" y2="178" fill="rgb(0, 0, 0)" stroke="rgb(60, 60, 60)" stroke-width="1px" opacity="0.25"></line><line x1="151.66666666666669" y1="0" x2="151.66666666666669" y2="178" fill="rgb(0, 0, 0)" stroke="rgb(60, 60, 60)" stroke-width="1px" opacity="0.25"></line><line x1="173.33333333333331" y1="0" x2="173.33333333333331" y2="178" fill="rgb(0, 0, 0)" stroke="rgb(60, 60, 60)" stroke-width="1px" opacity="0.25"></line><line x1="195" y1="0" x2="195" y2="178" fill="rgb(0, 0, 0)" stroke="rgb(60, 60, 60)" stroke-width="1px" opacity="0.25"></line><line x1="216.66666666666669" y1="0" x2="216.66666666666669" y2="178" fill="rgb(0, 0, 0)" stroke="rgb(60, 60, 60)" stroke-width="1px" opacity="0.25"></line><line x1="238.33333333333331" y1="0" x2="238.33333333333331" y2="178" fill="rgb(0, 0, 0)" stroke="rgb(60, 60, 60)" stroke-width="1px" opacity="0.25"></line><line x1="260" y1="0" x2="260" y2="178" fill="rgb(0, 0, 0)" stroke="rgb(60, 60, 60)" stroke-width="1px" opacity="0.25"></line></g><g><line x1="0" y1="178" x2="260" y2="178" fill="rgb(0, 0, 0)" stroke="rgb(60, 60, 60)" stroke-width="1px" opacity="0.25"></line><line x1="0" y1="155.75" x2="260" y2="155.75" fill="rgb(0, 0, 0)" stroke="rgb(60, 60, 60)" stroke-width="1px" opacity="0.25"></line><line x1="0" y1="133.5" x2="260" y2="133.5" fill="rgb(0, 0, 0)" stroke="rgb(60, 60, 60)" stroke-width="1px" opacity="0.25"></line><line x1="0" y1="111.25" x2="260" y2="111.25" fill="rgb(0, 0, 0)" stroke="rgb(60, 60, 60)" stroke-width="1px" opacity="0.25"></line><line x1="0" y1="89" x2="260" y2="89" fill="rgb(0, 0, 0)" stroke="rgb(60, 60, 60)" stroke-width="1px" opacity="0.25"></line><line x1="0" y1="66.75" x2="260" y2="66.75" fill="rgb(0, 0, 0)" stroke="rgb(60, 60, 60)" stroke-width="1px" opacity="0.25"></line><line x1="0" y1="44.5" x2="260" y2="44.5" fill="rgb(0, 0, 0)" stroke="rgb(60, 60, 60)" stroke-width="1px" opacity="0.25"></line><line x1="0" y1="22.25" x2="260" y2="22.25" fill="rgb(0, 0, 0)" stroke="rgb(60, 60, 60)" stroke-width="1px" opacity="0.25"></line><line x1="0" y1="0" x2="260" y2="0" fill="rgb(0, 0, 0)" stroke="rgb(60, 60, 60)" stroke-width="1px" opacity="0.25"></line></g></g></g><g><g><line x1="0" y1="155.75" x2="260" y2="155.75" fill="rgb(0, 0, 0)" stroke="rgb(153, 153, 153)" stroke-width="1.5px"></line></g></g><g><g><line x1="21.666666666666664" y1="0" x2="21.666666666666664" y2="178" fill="rgb(0, 0, 0)" stroke="rgb(153, 153, 153)" stroke-width="1.5px"></line></g></g><g><g><g><g><g><path stroke="rgb(51, 187, 238)" stroke-width="2px" d="M27.228825,142.7337504774332L27.45535,142.59468728117645L27.618175,142.5521169149754L27.82335833333333,142.37995825998266L28.02074166666667,142.58165938392187L28.227225,142.55211704852167L28.443675000000002,142.26060989444463L28.619716666666665,142.1362775889317L28.819916666666668,141.9281693870423L29.032358333333335,141.5360303263058L29.215875,141.74889036084517L29.393108333333334,142.23288787985342L29.576841666666667,142.43349492560952L29.761116666666666,142.77636562190156L29.94918333333333,143.02643688923814L30.137575,143.3099419224554L30.326075,143.8360542067079L30.513275,144.10716009996602L30.706758333333333,144.31430868278028L30.921583333333334,144.43858975358103L31.128608333333332,144.2016484209665L31.315483333333333,143.9259853181589L31.512108333333334,143.49358792465722L31.74535,142.65564895407397L31.970683333333334,141.7968869097399L32.141958333333335,141.50413141304477L32.350825,140.9724784097814L32.54864166666667,140.43098650114925L32.720241666666666,140.4175919169735L32.94795833333333,140.2760552674288L33.158883333333335,140.10213337079932L33.34229166666666,140.08678016979246L33.58181666666667,139.58806816293801L33.771074999999996,139.8228410105856L33.964016666666666,140.31970438148102L34.16475833333334,140.26182273438786L34.38066666666667,140.22709374651404L34.613150000000005,139.89475611935887L34.84563333333334,139.07235360612532L35.07205,138.6234120569788L35.257841666666664,138.7100473191338L35.480575,138.36152832765478L35.701033333333335,138.41941720880212L35.916183333333336,138.05365038887567L36.114325,137.700690424262L36.32091666666666,137.444414487953L36.51526666666667,137.5576486715568L36.74959166666667,137.49208930902887L36.95661666666666,137.63075352176142L37.19235,137.62495213427604L37.396341666666665,137.3544710259333L37.6142,137.19218236092846L37.819491666666664,137.27280952265346L38.02478333333334,137.49918564993456L38.25943333333333,137.3235116233724L38.503508333333336,136.68410718621575L38.71746666666667,135.89996437538701L38.913333333333334,135.96347871010926L39.15643333333333,135.60108716240774L39.37245,135.51715210647137L39.58175,135.33329120022506L39.816075,135.08947478379278L40.044983333333334,134.63168470052165L40.28288333333334,134.00101099006702L40.48525,133.8896065091632L40.663241666666664,134.62376411769046L40.895725,134.930758279641L41.12463333333333,134.44745488290758L41.391025000000006,133.7124732692526L41.59165833333333,133.3604842161826L41.84981666666667,132.48179035995554L42.05435,132.3550747252354L42.279358333333334,132.32354530196483L42.523,132.12662675679383L42.75136666666667,131.74147588432226L42.99056666666667,130.79838603985544L43.223591666666664,130.0990311995282L43.495725,129.59041838020886L43.72961666666667,129.77475128275637L43.95928333333333,129.6183512789159L44.193933333333334,129.96951085222656L44.41385,129.735207020598L44.63441666666667,129.5946247216209L44.875566666666664,129.59927525735762L45.120725,129.3795647300295L45.36111666666666,129.33673832875562L45.611475,128.86604291237634L45.8575,128.76162549279476L46.1227,128.2539754654309L46.343158333333335,127.94938544901257L46.617675,127.0101310996535L46.84636666666667,126.49107844759956L47.06411666666666,126.22414681392871L47.298116666666665,126.19748770641066L47.549775000000004,126.09249232677685L47.80934166666667,125.22849586288967L48.074866666666665,125.06609764504934L48.310383333333334,124.96865871434512L48.52856666666667,125.57769471934499L48.817924999999995,125.3646168740455L49.063624999999995,125.94877054881238L49.30455833333334,126.21026283854951L49.60550833333333,125.34365812751477L49.82575,124.77919534333245L50.080875,124.35151669673738L50.3061,125.02940967853436L50.53349166666667,125.7031462739442L50.76619166666667,126.01838725510444L51.036375,125.54003248037819L51.308075,125.03051982773496L51.589200000000005,124.14631172688695L51.857216666666666,123.2597872058862L52.10248333333334,123.48437283279381L52.391733333333335,122.9516237845533L52.674483333333335,122.49847448292451L52.92928333333333,121.95958515657829L53.18245833333333,121.23575088175443L53.43205833333334,120.62345048661416L53.66475833333333,120.34507016465297L53.9617,120.13354201391476L54.262325000000004,119.0721249537178L54.559808333333336,118.16827497223069L54.84548333333333,116.91396460139185L55.132675,116.16137837888854L55.39105,115.70982664538656L55.6556,114.94939607210895L55.941383333333334,113.82563730375732L56.18589166666667,113.01788217006185L56.4135,112.84472879277503L56.67501666666667,113.18583740298054L56.94043333333334,114.41400265398084L57.17995833333333,115.68490129531897L57.47235,116.49194043768333L57.76983333333334,116.84266405041745L58.038066666666666,117.09759817561942L58.3453,117.11705877805615L58.656325,117.21773505464114L58.93994166666666,117.05564103278469L59.271766666666664,116.02388444991678L59.558416666666666,115.13783075482709L59.839650000000006,113.93869811338818L60.10084166666667,113.04121869827888L60.42681666666667,112.10223037019719L60.73350833333333,110.8268380523643L61.04388333333333,109.43860325580364L61.301500000000004,109.05066195348219L61.600825,108.15039674770425L61.93709166666667,107.12073703009838L62.200125,106.85894298195215L62.494575,106.65736553454025L62.83701666666667,105.86891864170804L63.11900833333333,105.17335177916392L63.413133333333334,105.20101123725239L63.71365,105.66260648772038L64.02196666666667,105.9395636380012L64.328225,105.03773894669385L64.61736666666667,105.25314234949214L64.92503333333333,105.42688540969529L65.255775,104.46313226434134L65.56690833333334,103.52887859471168L65.89006666666667,103.50232800559715L66.17140833333333,103.48639765212843L66.47333333333333,102.76483799713796L66.76366666666667,102.06490245877471L67.06082500000001,101.42244240891199L67.352675,101.57096586973226L67.65785000000001,100.99257952183936L67.940275,100.82354754334959L68.226925,101.83462835625573L68.53361666666666,101.99627726838447L68.828825,102.04876559713756L69.10420833333333,101.99125867926641L69.42985833333333,102.26825529243686L69.70535,102.83495393935523L70.03825833333333,102.81897134508897L70.36445,102.49788314656143L70.6511,102.75022980305985L71.01044166666667,102.01163864572904L71.33099999999999,101.12348225379026L71.66228333333333,100.59058841862701L71.968975,100.13735330580725L72.28043333333333,98.70841121959121L72.609875,97.2280465620007L72.90844166666666,95.76132725818431L73.24113333333332,95.01479660954163L73.52366666666667,94.87837898424915L73.8543,94.08452696616442L74.15470833333333,94.0087164343297L74.481875,93.51823053961392L74.86873333333334,92.91243823889134L75.193625,92.0594622643187L75.50984999999999,91.81467642494407L75.84275833333332,92.33530534570436L76.14381666666667,93.13718329229962L76.49059166666666,93.44031023001082L76.817,92.99918698677664L77.14286666666666,93.44651236182L77.49083333333333,93.49240673807589L77.81713333333333,93.16394370333748L78.117975,93.54536639175652L78.46984166666667,93.46271924091481L78.82831666666667,93.27963213868799L79.13435833333332,92.59127936808981L79.48189166666667,91.42176736622285L79.83895833333332,90.58656135338086L80.17728333333334,90.08543774567568L80.49231666666667,89.07276213814332L80.85057499999999,88.15365813165613L81.15109166666667,88.40319496387067L81.433625,88.64191697832241L81.77108333333332,89.0521499323624L82.073875,89.52079055355655L82.41859166666667,89.66847399262588L82.73828333333333,90.33558456532954L83.04660000000001,90.86934972067355L83.366075,91.5011095777731L83.691725,92.05816532227878L84.04900833333335,92.70389953287533L84.396325,92.86883921046311L84.72641666666667,92.61180335652384L85.05531666666667,92.54658175928326L85.36590833333334,92.1069481219228L85.734675,91.62066921266172L86.09564166666668,90.39440169735107L86.420425,89.39164144279572L86.73665000000001,88.52298554469354L87.070425,88.00179200583224L87.41135,87.6445748639913L87.77264166666666,86.05074483351777L88.08041666666668,84.7384471547417L88.39891666666666,84.52956905673815L88.768225,83.82574168867393L89.11034166666667,83.22544543758943L89.478025,82.5537669230456L89.80952500000001,82.50675947481123L90.174825,81.54405483611662L90.51596666666667,80.96643205289982L90.86155,80.61985838296975L91.20734999999999,80.76791596342899L91.561925,79.83325042682755L91.92332499999999,78.73844949220342L92.27475833333334,78.52657062896918L92.63605,78.3549422925045L93.0137,78.20746639402687L93.35993333333333,77.45148043055521L93.69955833333333,76.73088910710327L94.04568333333333,75.76453270036883L94.35638333333334,75.09571894120519L94.71594166666667,75.22843229837027L95.02588333333334,76.153558445375L95.37385,76.39713549161007L95.72788333333332,75.87578129496605L96.06133333333334,75.38496894673366L96.429125,75.62448102853213L96.77210833333332,75.36768759859511L97.14336666666667,75.48061340792721L97.50574166666667,75.41486795987932L97.83106666666667,74.21842179445176L98.15715,72.96655248253195L98.50219166666666,72.08193208365826L98.84950833333333,71.28416009896512L99.2004,71.116995550117L99.5722,70.8831980090863L99.95537499999999,70.52041863569775L100.29565,70.74775058727954L100.65585833333334,71.06214958847458L101.01303333333333,70.22728890431463L101.393175,69.9043723240646L101.743525,69.35462271542266L102.09474166666666,69.4252736292536L102.440325,69.2006644321832L102.79988333333333,68.70989925344902L103.12304166666667,68.99393853354526L103.46635,68.63036261086506L103.81648333333334,67.96721748164202L104.21309166666667,66.99083201677146L104.60374166666668,66.84999819153872L104.967525,66.98799874516921L105.35839166666666,67.07079907734752L105.71838333333334,66.14147808837626L106.09029166666667,65.71738855056604L106.41594166666667,65.4629348278799L106.77810000000001,64.10876055721988L107.16040833333334,63.91925752261014L107.50198333333333,63.716553664795924L107.90379166666668,63.327933726663815L108.27721666666666,62.91676193353857L108.63926666666667,62.180556141598956L108.99384166666667,61.20483317569729L109.35849166666667,60.88640126345058L109.72715,60.517342285856614L110.06829166666667,59.984404013481736L110.409975,60.46564240808904L110.80885833333333,59.90888731214774L111.16505833333333,60.197831538518514L111.543575,60.4602001113893L111.90909166666667,60.70661904830942L112.26442499999999,61.25497108947759L112.64456666666668,61.98448299319462L113.00044166666666,62.42219013542483L113.34916666666666,63.307815948549205L113.72226666666667,63.7501893993755L114.109125,63.25911313036322L114.49349166666667,63.36496804797197L114.89746666666666,62.58298286583151L115.26254999999999,62.55878921023681L115.66912500000001,61.92127148909374L116.03637499999999,61.44976306321027L116.41196666666667,61.21135902620436L116.79178333333333,60.35631728301692L117.18600833333333,58.99778986054807L117.5655,58.093675613869124L117.953225,57.417704010289256L118.32600000000001,56.433620538879225L118.70061666666666,55.53167181406545L119.09982500000001,53.92250359770135L119.4726,53.49100215862083L119.846025,52.920602653204725L120.25173333333333,52.26686006413658L120.63913333333333,52.00811756626821L121.07723333333333,51.2743715582851L121.442425,50.74512191644689L121.824625,51.22857348937619L122.23488333333334,51.474143414609614L122.63214166666666,51.621485369749664L123.02755833333333,52.15489224037397L123.43998333333334,51.80743381643812L123.825975,51.99945944109274L124.23211666666667,51.93667498563953L124.65299166666667,51.09800295433537L125.04418333333332,51.03980143309316L125.43938333333332,50.693381878380066L125.83155,49.59553099432236L126.24581666666667,48.49181876634745L126.67925833333332,47.963090241284306L127.083125,47.20085567255683L127.49879999999999,47.2330134035341L127.90526666666666,46.3623088908906L128.30144166666668,46.4183866925666L128.75644166666666,46.496530148245654L129.19486666666666,46.40991740993127L129.60880833333334,47.470449766942664L130.11689166666667,47.97327036942767L130.55965,48.230461712394515L131.0132416666667,48.028776857682686L131.48470833333334,48.263765605347544L131.92324166666666,48.0042581749303L132.40045,48.07105456545014L132.82576666666668,47.57713290902413L133.3501,47.63677957566043L133.84637500000002,47.583569782444584L134.35716666666667,46.439143906515085L134.846075,46.06398702292515L135.34765833333333,46.01689272301718L135.86235000000002,45.721634275778115L136.39610833333333,45.18847954694269L136.894225,44.73508789791964L137.40761666666668,44.73005477580011L137.92274166666667,44.282033204988124L138.43743333333333,43.83522043225494L138.9873333333333,43.38913293836907L139.49563333333333,43.47748010252951L139.98605833333332,43.1744887405338L140.50649166666668,42.90369188628807L141.06365,43.453213094724504L141.58516666666668,43.827426838310544L142.08024999999998,44.49695678200246L142.58248333333333,44.40917203215312L143.0125666666667,44.534505256340196L143.51274166666667,44.29820230503398L143.98962500000002,43.889422910806644L144.55425833333334,43.46615544402428L145.04988333333333,43.301192757152506L145.60823333333335,43.113217351831764L146.12249166666666,42.377430580853115L146.61324166666665,42.11395834851186L147.133675,41.68887314181279L147.67599166666668,41.56732507336588L148.2104,41.49439623229773L148.73516666666666,41.851139606672945L149.25841666666665,42.42118529179004L149.75274166666668,42.76321270286027L150.254325,43.14642897974841L150.78429166666666,43.99935602981682L151.314475,44.42211446666022L151.85744166666666,44.4977696985203L152.44850833333334,44.67666164935815L152.966125,44.96199665010684L153.46153333333334,44.866200027112455L154.0058,44.9422208650376L154.52926666666667,44.89883133074437L154.99975833333335,44.7837998169708L155.50058333333334,44.71478090870664L155.97443333333334,44.317369903256235L156.521625,44.07892329998597L157.05570833333334,43.93585533802383L157.58155833333333,43.76101252379817L158.17685,43.34460819329502L158.75350833333334,43.2727654252391L159.23299166666666,42.78465806686526L159.7489833333333,42.313793821595L160.29585,41.89777646271105L160.86221666666668,41.20316434984039L161.35004166666664,40.430397421626026L161.85021666666665,40.10024032026993L162.403475,39.99114385265389L162.95413333333335,39.83668817888665L163.469475,39.92201460487226L163.98719999999997,39.83970740489113L164.48759166666665,40.19082376391856L165.00282499999997,40.53499239105682L165.47949166666666,41.2754973019284L166.02256666666668,41.54180041820538L166.51494166666666,41.83508109969338L167.01934166666666,42.05555052711034L167.55840833333332,42.187832183560516L168.0718,42.40069998915243L168.62560000000002,42.30591982373741L169.18741666666665,42.42705155473439L169.72843333333333,42.677730423578566L170.19318333333334,42.65013791463909L170.74839166666666,42.14408393706162L171.26969166666666,42.285449004204764L171.85306666666665,42.281270251292995L172.34999166666665,42.234261981021774L172.8883,42.11705922566139L173.39974166666667,42.22473740269115L173.97423333333333,42.24484329038481L174.50766666666667,41.85640614398491L175.05345,41.22284317712885L175.65015000000002,41.33220386922898L176.21554166666667,41.26432147276725L176.75330833333334,41.04559220464421L177.33625,40.914354643770395L177.92850833333333,41.05811295601629L178.46649166666668,41.322367773609756L178.98649166666667,41.3029208339199L179.52848333333333,41.06875182133581L180.02291666666667,41.3287510928015L180.57498333333334,41.35125184395909L181.15998333333334,40.96425161563752L181.71995833333332,40.91005130889056L182.235625,40.83303010631823L182.88475833333334,41.05381925206913L183.44180833333334,40.69679002345521L184.02431666666666,40.972075202351334L184.5051,40.825743423870506L185.07341666666667,41.182946054322315L185.62179999999998,41.08576899062558L186.18621666666667,41.11646054560521L186.72441666666666,41.4018773458873L187.27648333333335,41.573127426056544L187.78944166666668,41.9428750976017L188.36263333333332,41.89772607708517L188.96680833333335,42.00413547649708L189.525375,41.13348094639019L190.11871666666667,41.14508771906398L190.70750833333335,41.0630539894706L191.31948333333332,41.10283154491222L191.91921666666667,40.90419722940706L192.56705,40.60701680985798L193.17198333333334,40.25070872788257L193.68905833333332,40.03692387869731L194.1925916666667,40.175654836480476L194.78441666666666,40.25889341115035L195.37765,40.62033519792007L195.94390833333333,40.43669959096579L196.505725,40.148518396547246L197.23459166666666,40.420611377436416L197.83454166666667,40.672864959167526L198.43990833333334,40.8242171082062L199.02230833333334,41.137529246399566L199.60189166666666,40.925015850299445L200.22415833333335,40.66400900091759L200.81576666666666,40.373906079566666L201.46273333333332,39.843844666264175L202.04675833333332,39.30330696951253L202.67086666666665,39.06798214465917L203.235175,38.43728877753344L203.87336666666667,38.2813736060281L204.45045833333333,38.187824503124915L204.99028333333334,38.26519385310482L205.64060833333335,38.534116311862874L206.232,38.73997080564189L206.75990833333336,39.57548282289321L207.37849166666666,40.4772907122601L207.97887500000002,41.28537306932384L208.56268333333333,41.50322486011845L209.14855,41.85643678336538L209.85813333333334,41.89036410706757L210.54821666666666,42.31121693645429L211.11815833333333,42.34123202916689L211.683875,42.403737859467896L212.255875,42.17424373420491L212.82711666666665,41.85854742880113L213.404425,41.22412794801858L214.0513916666667,40.75447846635143L214.6898,40.561686570548744L215.29906666666668,40.49051245159134L215.89229999999998,40.3143091684951L216.594625,39.80808651962124L217.33540833333333,39.14835326980497L217.89365,39.06401196188298L218.46998333333332,39.19140700737577L219.06993333333332,38.822842337131135L219.73466666666667,38.690705572032726L220.44825833333334,38.96742317346559L221.14657499999998,39.489453394817275L221.87598333333332,39.402170848612144L222.57798333333332,39.79480301842938L223.23329166666667,39.98588130179553L223.873,40.412026913782995L224.54184999999998,40.40071665753189L225.17950000000002,40.12692863648692L225.8113,40.05165786090825L226.39261666666667,40.095493188758724L227.21703333333332,39.587794894731076L227.80983333333333,38.971677276346696L228.514975,38.95800636580802L229.23040833333334,38.81630500776299L229.86903333333333,38.82028198613361L230.52315000000002,38.82266817315599L231.283975,38.735102092171815L232.00363333333334,38.81606125530308L232.75828333333334,38.95363879023017L233.347075,38.9471832741381L234.0195,39.52181047374495L234.63786666666667,39.733087981787264L235.25634166666666,39.637353637842494L236.006225,39.40191320122966" style="fill: none;" fill="none"></path></g></g></g></g><g opacity="0.2"><g><g><g><path stroke="rgb(51, 187, 238)" stroke-width="2px" d="M27.228825,142.7337504774332L27.45535,142.5112493634224L27.618175,142.5112493634224L27.82335833333333,142.1774996817112L28.02074166666667,142.84500037133694L28.227225,142.5112493634224L28.443675000000002,141.84375L28.619716666666665,141.95499989390373L28.819916666666668,141.62125021219254L29.032358333333335,140.9537495225668L29.215875,142.06624978780746L29.393108333333334,142.95625026524067L29.576841666666667,142.7337504774332L29.761116666666666,143.28999994695187L29.94918333333333,143.4012498408556L30.137575,143.7349995225668L30.326075,144.625L30.513275,144.51375010609627L30.706758333333333,144.625L30.921583333333334,144.625L31.128608333333332,143.84624941647053L31.315483333333333,143.51249973475933L31.512108333333334,142.84500037133694L31.74535,141.39875042438507L31.970683333333334,140.50874994695187L32.141958333333335,141.06499941647053L32.350825,140.17500026524067L32.54864166666667,139.61874946951866L32.720241666666666,140.39750005304813L32.94795833333333,140.06375037133694L33.158883333333335,139.84125058352947L33.34229166666666,140.06375037133694L33.58181666666667,138.84000021219254L33.771074999999996,140.17500026524067L33.964016666666666,141.06499941647053L34.16475833333334,140.17500026524067L34.38066666666667,140.17500026524067L34.613150000000005,139.3962496817112L34.84563333333334,137.8387498408556L35.07205,137.94999973475933L35.257841666666664,138.84000021219254L35.480575,137.8387498408556L35.701033333333335,138.50625053048134L35.916183333333336,137.5050001591444L36.114325,137.1712504774332L36.32091666666666,137.06000058352947L36.51526666666667,137.72749994695187L36.74959166666667,137.39375026524067L36.95661666666666,137.8387498408556L37.19235,137.61625005304813L37.396341666666665,136.9487493634224L37.6142,136.9487493634224L37.819491666666664,137.39375026524067L38.02478333333334,137.8387498408556L38.25943333333333,137.06000058352947L38.503508333333336,135.72500053048134L38.71746666666667,134.7237501591444L38.913333333333334,136.05875021219254L39.15643333333333,135.0574998408556L39.37245,135.3912495225668L39.58175,135.0574998408556L39.816075,134.7237501591444L40.044983333333334,133.94499957561493L40.28288333333334,133.05500042438507L40.48525,133.72249978780746L40.663241666666664,135.72500053048134L40.895725,135.3912495225668L41.12463333333333,133.72249978780746L41.391025000000006,132.61000084877014L41.59165833333333,132.8325006365776L41.84981666666667,131.16374957561493L42.05435,132.1650012731552L42.279358333333334,132.27625116705894L42.523,131.83124893903732L42.75136666666667,131.16374957561493L42.99056666666667,129.3837512731552L43.223591666666664,129.04999893903732L43.495725,128.82749915122986L43.72961666666667,130.0512506365776L43.95928333333333,129.3837512731552L44.193933333333334,130.49625021219254L44.41385,129.3837512731552L44.63441666666667,129.3837512731552L44.875566666666664,129.60625106096268L45.120725,129.04999893903732L45.36111666666666,129.2724987268448L45.611475,128.15999978780746L45.8575,128.6049993634224L46.1227,127.49250042438507L46.343158333333335,127.49250042438507L46.617675,125.60124957561493L46.84636666666667,125.71249946951866L47.06411666666666,125.8237493634224L47.298116666666665,126.15749904513359L47.549775000000004,125.93499925732613L47.80934166666667,123.93250116705894L48.074866666666665,124.8225003182888L48.310383333333334,124.8225003182888L48.52856666666667,126.49124872684479L48.817924999999995,125.04500010609627L49.063624999999995,126.82500106096268L49.30455833333334,126.60250127315521L49.60550833333333,124.04375106096268L49.82575,123.93250116705894L50.080875,123.70999872684479L50.3061,126.04624915122986L50.53349166666667,126.71375116705894L50.76619166666667,126.49124872684479L51.036375,124.8225003182888L51.308075,124.26625084877014L51.589200000000005,122.81999957561493L51.857216666666666,121.93000042438507L52.10248333333334,123.82125127315521L52.391733333333335,122.15250021219254L52.674483333333335,121.81875053048134L52.92928333333333,121.15125116705894L53.18245833333333,120.14999946951866L53.43205833333334,119.70499989390373L53.66475833333333,119.9274996817112L53.9617,119.81624978780746L54.262325000000004,117.4799993634224L54.559808333333336,116.8125L54.84548333333333,115.03249904513359L55.132675,115.03249904513359L55.39105,115.03249904513359L55.6556,113.80875021219254L55.941383333333334,112.13999915122986L56.18589166666667,111.80624946951866L56.4135,112.58499872684479L56.67501666666667,113.6975003182888L56.94043333333334,116.25625053048134L57.17995833333333,117.59124925732613L57.47235,117.70249915122986L57.76983333333334,117.36874946951866L58.038066666666666,117.4799993634224L58.3453,117.1462496817112L58.656325,117.36874946951866L58.93994166666666,116.8125L59.271766666666664,114.47624957561493L59.558416666666666,113.80875021219254L59.839650000000006,112.13999915122986L60.10084166666667,111.69499957561493L60.42681666666667,110.69374787807465L60.73350833333333,108.91374957561493L61.04388333333333,107.35625106096268L61.301500000000004,108.46875L61.600825,106.79999893903732L61.93709166666667,105.57624745368958L62.200125,106.46625190973282L62.494575,106.3549993634224L62.83701666666667,104.68624830245972L63.11900833333333,104.13000148534775L63.413133333333334,105.24250042438507L63.71365,106.3549993634224L64.02196666666667,106.3549993634224L64.328225,103.68500190973282L64.61736666666667,105.57624745368958L64.92503333333333,105.6875L65.255775,103.01750254631042L65.56690833333334,102.12749809026718L65.89006666666667,103.46250212192535L66.17140833333333,103.46250212192535L66.47333333333333,101.68249851465225L66.76366666666667,101.01499915122986L67.06082500000001,100.45875233411789L67.352675,101.79375106096268L67.65785000000001,100.125L67.940275,100.56999957561493L68.226925,103.35124957561493L68.53361666666666,102.2387506365776L68.828825,102.12749809026718L69.10420833333333,101.90499830245972L69.42985833333333,102.68375021219254L69.70535,103.68500190973282L70.03825833333333,102.79499745368958L70.36445,102.01625084877014L70.6511,103.12874978780746L71.01044166666667,100.90375190973282L71.33099999999999,99.79124766588211L71.66228333333333,99.79124766588211L71.968975,99.4575006365776L72.28043333333333,96.56499809026718L72.609875,95.00749957561493L72.90844166666666,93.56124830245972L73.24113333333332,93.8950006365776L73.52366666666667,94.67375254631042L73.8543,92.89374893903732L74.15470833333333,93.8950006365776L74.481875,92.78250169754028L74.86873333333334,92.00374978780746L75.193625,90.77999830245972L75.50984999999999,91.44749766588211L75.84275833333332,93.11624872684479L76.14381666666667,94.34000021219254L76.49059166666666,93.8950006365776L76.817,92.33750212192535L77.14286666666666,94.11750042438507L77.49083333333333,93.56124830245972L77.81713333333333,92.67124915122986L78.117975,94.11750042438507L78.46984166666667,93.33874851465225L78.82831666666667,93.00500148534775L79.13435833333332,91.55875021219254L79.48189166666667,89.6674993634224L79.83895833333332,89.33375233411789L80.17728333333334,89.33375233411789L80.49231666666667,87.55374872684479L80.85057499999999,86.77500212192535L81.15109166666667,88.77750021219254L81.433625,89L81.77108333333332,89.6674993634224L82.073875,90.22375148534775L82.41859166666667,89.88999915122986L82.73828333333333,91.33625042438507L83.04660000000001,91.66999745368958L83.366075,92.4487493634224L83.691725,92.89374893903732L84.04900833333335,93.67250084877014L84.396325,93.11624872684479L84.72641666666667,92.22624957561493L85.05531666666667,92.4487493634224L85.36590833333334,91.44749766588211L85.734675,90.89125084877014L86.09564166666668,88.55500042438507L86.420425,87.88750106096268L86.73665000000001,87.22000169754028L87.070425,87.22000169754028L87.41135,87.10874915122986L87.77264166666666,83.65999978780746L88.08041666666668,82.7700006365776L88.39891666666666,84.21625190973282L88.768225,82.7700006365776L89.11034166666667,82.32500106096268L89.478025,81.54624915122986L89.80952500000001,82.43624830245972L90.174825,80.09999787807465L90.51596666666667,80.09999787807465L90.86155,80.09999787807465L91.20734999999999,80.99000233411789L91.561925,78.43125212192535L91.92332499999999,77.09624809026718L92.27475833333334,78.20875233411789L92.63605,78.09749978780746L93.0137,77.98625254631042L93.35993333333333,76.31750148534775L93.69955833333333,75.65000212192535L94.04568333333333,74.31499809026718L94.35638333333334,74.09249830245972L94.71594166666667,75.42750233411789L95.02588333333334,77.54124766588211L95.37385,76.76250106096268L95.72788333333332,75.09375L96.06133333333334,74.64875042438507L96.429125,75.98374915122986L96.77210833333332,74.98249745368958L97.14336666666667,75.65000212192535L97.50574166666667,75.31624978780746L97.83106666666667,72.42375254631042L98.15715,71.08874851465225L98.50219166666666,70.75500148534775L98.84950833333333,70.08750212192535L99.2004,70.86624872684479L99.5722,70.53250169754028L99.95537499999999,69.97624957561493L100.29565,71.08874851465225L100.65585833333334,71.53374809026718L101.01303333333333,68.97499787807465L101.393175,69.41999745368958L101.743525,68.52999830245972L102.09474166666666,69.53125L102.440325,68.8637506365776L102.79988333333333,67.97375148534775L103.12304166666667,69.41999745368958L103.46635,68.08499872684479L103.81648333333334,66.97249978780746L104.21309166666667,65.52625381946564L104.60374166666668,66.63874745368958L104.967525,67.19499957561493L105.35839166666666,67.19499957561493L105.71838333333334,64.74749660491943L106.09029166666667,65.08125424385071L106.41594166666667,65.08125424385071L106.77810000000001,62.07749915122986L107.16040833333334,63.635002970695496L107.50198333333333,63.412497878074646L107.90379166666668,62.74500381946564L108.27721666666666,62.30000424385071L108.63926666666667,61.076247453689575L108.99384166666667,59.74124872684479L109.35849166666667,60.408753395080566L109.72715,59.96375381946564L110.06829166666667,59.184996604919434L110.409975,61.1875L110.80885833333333,59.07375466823578L111.16505833333333,60.631247878074646L111.543575,60.853752970695496L111.90909166666667,61.076247453689575L112.26442499999999,62.07749915122986L112.64456666666668,63.07875084877014L113.00044166666666,63.07875084877014L113.34916666666666,64.63625466823578L113.72226666666667,64.41374957561493L114.109125,62.52249872684479L114.49349166666667,63.52375042438507L114.89746666666666,61.41000509262085L115.26254999999999,62.52249872684479L115.66912500000001,60.96499490737915L116.03637499999999,60.74250042438507L116.41196666666667,60.853752970695496L116.79178333333333,59.07375466823578L117.18600833333333,56.95999872684479L117.5655,56.73750424385071L117.953225,56.403746604919434L118.32600000000001,54.95749533176422L118.70061666666666,54.17874872684479L119.09982500000001,51.50875127315521L119.4726,52.84375L119.846025,52.065003395080566L120.25173333333333,51.28624618053436L120.63913333333333,51.62000381946564L121.07723333333333,50.173752546310425L121.442425,49.951247453689575L121.824625,51.95375084877014L122.23488333333334,51.84249830245972L122.63214166666666,51.84249830245972L123.02755833333333,52.955002546310425L123.43998333333334,51.28624618053436L123.825975,52.287497878074646L124.23211666666667,51.84249830245972L124.65299166666667,49.83999490737915L125.04418333333332,50.95249915122986L125.43938333333332,50.173752546310425L125.83155,47.94875466823578L126.24581666666667,46.83625042438507L126.67925833333332,47.169997453689575L127.083125,46.05750381946564L127.49879999999999,47.28125L127.90526666666666,45.056252121925354L128.30144166666668,46.502503395080566L128.75644166666666,46.61374533176422L129.19486666666666,46.27999830245972L129.60880833333334,49.06124830245972L130.11689166666667,48.72750127315521L130.55965,48.61624872684479L131.0132416666667,47.72624957561493L131.48470833333334,48.61624872684479L131.92324166666666,47.614997029304504L132.40045,48.17124915122986L132.82576666666668,46.83625042438507L133.3501,47.72624957561493L133.84637500000002,47.50375509262085L134.35716666666667,44.72250509262085L134.846075,45.50125169754028L135.34765833333333,45.94625127315521L135.86235000000002,45.278746604919434L136.39610833333333,44.388747453689575L136.894225,44.05500042438507L137.40761666666668,44.72250509262085L137.92274166666667,43.61000084877014L138.43743333333333,43.16500127315521L138.9873333333333,42.72000169754028L139.49563333333333,43.61000084877014L139.98605833333332,42.72000169754028L140.50649166666668,42.497496604919434L141.06365,44.27749490737915L141.58516666666668,44.388747453689575L142.08024999999998,45.50125169754028L142.58248333333333,44.27749490737915L143.0125666666667,44.72250509262085L143.51274166666667,43.943747878074646L143.98962500000002,43.27625381946564L144.55425833333334,42.83125424385071L145.04988333333333,43.05374872684479L145.60823333333335,42.83125424385071L146.12249166666666,41.27375042438507L146.61324166666665,41.71875L147.133675,41.05124533176422L147.67599166666668,41.385002970695496L148.2104,41.385002970695496L148.73516666666666,42.38625466823578L149.25841666666665,43.27625381946564L149.75274166666668,43.27625381946564L150.254325,43.721253395080566L150.78429166666666,45.278746604919434L151.314475,45.056252121925354L151.85744166666666,44.611252546310425L152.44850833333334,44.94499957561493L152.966125,45.38999915122986L153.46153333333334,44.72250509262085L154.0058,45.056252121925354L154.52926666666667,44.833747029304504L154.99975833333335,44.611252546310425L155.50058333333334,44.611252546310425L155.97443333333334,43.721253395080566L156.521625,43.721253395080566L157.05570833333334,43.721253395080566L157.58155833333333,43.49874830245972L158.17685,42.72000169754028L158.75350833333334,43.16500127315521L159.23299166666666,42.052497029304504L159.7489833333333,41.607497453689575L160.29585,41.27375042438507L160.86221666666668,40.16124618053436L161.35004166666664,39.271247029304504L161.85021666666665,39.60500466823578L162.403475,39.82749915122986L162.95413333333335,39.60500466823578L163.469475,40.05000424385071L163.98719999999997,39.716246604919434L164.48759166666665,40.71749830245972L165.00282499999997,41.05124533176422L165.47949166666666,42.38625466823578L166.02256666666668,41.94125509262085L166.51494166666666,42.275002121925354L167.01934166666666,42.38625466823578L167.55840833333332,42.38625466823578L168.0718,42.72000169754028L168.62560000000002,42.16374957561493L169.18741666666665,42.60874915122986L169.72843333333333,43.05374872684479L170.19318333333334,42.60874915122986L170.74839166666666,41.385002970695496L171.26969166666666,42.497496604919434L171.85306666666665,42.275002121925354L172.34999166666665,42.16374957561493L172.8883,41.94125509262085L173.39974166666667,42.38625466823578L173.97423333333333,42.275002121925354L174.50766666666667,41.27375042438507L175.05345,40.27249872684479L175.65015000000002,41.49624490737915L176.21554166666667,41.162497878074646L176.75330833333334,40.71749830245972L177.33625,40.71749830245972L177.92850833333333,41.27375042438507L178.46649166666668,41.71875L178.98649166666667,41.27375042438507L179.52848333333333,40.71749830245972L180.02291666666667,41.71875L180.57498333333334,41.385002970695496L181.15998333333334,40.38375127315521L181.71995833333332,40.82875084877014L182.235625,40.71749830245972L182.88475833333334,41.385002970695496L183.44180833333334,40.16124618053436L184.02431666666666,41.385002970695496L184.5051,40.60624575614929L185.07341666666667,41.71875L185.62179999999998,40.940003395080566L186.18621666666667,41.162497878074646L186.72441666666666,41.830002546310425L187.27648333333335,41.830002546310425L187.78944166666668,42.497496604919434L188.36263333333332,41.830002546310425L188.96680833333335,42.16374957561493L189.525375,39.82749915122986L190.11871666666667,41.162497878074646L190.70750833333335,40.940003395080566L191.31948333333332,41.162497878074646L191.91921666666667,40.60624575614929L192.56705,40.16124618053436L193.17198333333334,39.716246604919434L193.68905833333332,39.716246604919434L194.1925916666667,40.38375127315521L194.78441666666666,40.38375127315521L195.37765,41.162497878074646L195.94390833333333,40.16124618053436L196.505725,39.716246604919434L197.23459166666666,40.82875084877014L197.83454166666667,41.05124533176422L198.43990833333334,41.05124533176422L199.02230833333334,41.607497453689575L199.60189166666666,40.60624575614929L200.22415833333335,40.27249872684479L200.81576666666666,39.93875169754028L201.46273333333332,39.048752546310425L202.04675833333332,38.49250042438507L202.67086666666665,38.71499490737915L203.235175,37.49124872684479L203.87336666666667,38.04750084877014L204.45045833333333,38.04750084877014L204.99028333333334,38.381247878074646L205.64060833333335,38.9375L206.232,39.048752546310425L206.75990833333336,40.82875084877014L207.37849166666666,41.830002546310425L207.97887500000002,42.497496604919434L208.56268333333333,41.830002546310425L209.14855,42.38625466823578L209.85813333333334,41.94125509262085L210.54821666666666,42.94249618053436L211.11815833333333,42.38625466823578L211.683875,42.497496604919434L212.255875,41.830002546310425L212.82711666666665,41.385002970695496L213.404425,40.27249872684479L214.0513916666667,40.05000424385071L214.6898,40.27249872684479L215.29906666666668,40.38375127315521L215.89229999999998,40.05000424385071L216.594625,39.048752546310425L217.33540833333333,38.158753395080566L217.89365,38.9375L218.46998333333332,39.38249957561493L219.06993333333332,38.26999533176422L219.73466666666667,38.49250042438507L220.44825833333334,39.38249957561493L221.14657499999998,40.27249872684479L221.87598333333332,39.271247029304504L222.57798333333332,40.38375127315521L223.23329166666667,40.27249872684479L223.873,41.05124533176422L224.54184999999998,40.38375127315521L225.17950000000002,39.716246604919434L225.8113,39.93875169754028L226.39261666666667,40.16124618053436L227.21703333333332,38.826247453689575L227.80983333333333,38.04750084877014L228.514975,38.9375L229.23040833333334,38.603752970695496L229.86903333333333,38.826247453689575L230.52315000000002,38.826247453689575L231.283975,38.603752970695496L232.00363333333334,38.9375L232.75828333333334,39.16000509262085L233.347075,38.9375L234.0195,40.38375127315521L234.63786666666667,40.05000424385071L235.25634166666666,39.493752121925354L236.006225,39.048752546310425" style="fill: none;" fill="none"></path></g></g></g></g></g></g><g transform="translate(70, 178)" clip-path="url(#clip_1)"><clipPath id="clip_1"><rect width="260" height="22"></rect></clipPath><g><g><line x1="0" y1="0" x2="0" y2="5" style="visibility: inherit;" fill="rgb(0, 0, 0)" stroke="rgb(204, 204, 204)" stroke-width="1px"></line><line x1="21.666666666666664" y1="0" x2="21.666666666666664" y2="5" style="visibility: inherit;" fill="rgb(0, 0, 0)" stroke="rgb(204, 204, 204)" stroke-width="1px"></line><line x1="43.33333333333333" y1="0" x2="43.33333333333333" y2="5" style="visibility: inherit;" fill="rgb(0, 0, 0)" stroke="rgb(204, 204, 204)" stroke-width="1px"></line><line x1="65" y1="0" x2="65" y2="5" style="visibility: inherit;" fill="rgb(0, 0, 0)" stroke="rgb(204, 204, 204)" stroke-width="1px"></line><line x1="86.66666666666666" y1="0" x2="86.66666666666666" y2="5" style="visibility: inherit;" fill="rgb(0, 0, 0)" stroke="rgb(204, 204, 204)" stroke-width="1px"></line><line x1="108.33333333333334" y1="0" x2="108.33333333333334" y2="5" style="visibility: inherit;" fill="rgb(0, 0, 0)" stroke="rgb(204, 204, 204)" stroke-width="1px"></line><line x1="130" y1="0" x2="130" y2="5" style="visibility: inherit;" fill="rgb(0, 0, 0)" stroke="rgb(204, 204, 204)" stroke-width="1px"></line><line x1="151.66666666666669" y1="0" x2="151.66666666666669" y2="5" style="visibility: inherit;" fill="rgb(0, 0, 0)" stroke="rgb(204, 204, 204)" stroke-width="1px"></line><line x1="173.33333333333331" y1="0" x2="173.33333333333331" y2="5" style="visibility: inherit;" fill="rgb(0, 0, 0)" stroke="rgb(204, 204, 204)" stroke-width="1px"></line><line x1="195" y1="0" x2="195" y2="5" style="visibility: inherit;" fill="rgb(0, 0, 0)" stroke="rgb(204, 204, 204)" stroke-width="1px"></line><line x1="216.66666666666669" y1="0" x2="216.66666666666669" y2="5" style="visibility: inherit;" fill="rgb(0, 0, 0)" stroke="rgb(204, 204, 204)" stroke-width="1px"></line><line x1="238.33333333333331" y1="0" x2="238.33333333333331" y2="5" style="visibility: inherit;" fill="rgb(0, 0, 0)" stroke="rgb(204, 204, 204)" stroke-width="1px"></line><line x1="260" y1="0" x2="260" y2="5" style="visibility: inherit;" fill="rgb(0, 0, 0)" stroke="rgb(204, 204, 204)" stroke-width="1px"></line></g><g transform="translate(0, 8)"><text x="0" y="0" dx="0em" dy="0.95em" style="text-anchor: middle; visibility: hidden; font-family: &quot;Helvetica Neue&quot;, sans-serif; font-size: 12px; font-weight: 200;" fill="rgb(50, 49, 63)" stroke="none" stroke-width="1px">-200.0k</text><text x="21.666666666666664" y="0" dx="0em" dy="0.95em" style="text-anchor: middle; visibility: inherit; font-family: &quot;Helvetica Neue&quot;, sans-serif; font-size: 12px; font-weight: 200;" fill="rgb(50, 49, 63)" stroke="none" stroke-width="1px">0.000</text><text x="43.33333333333333" y="0" dx="0em" dy="0.95em" style="text-anchor: middle; visibility: hidden; font-family: &quot;Helvetica Neue&quot;, sans-serif; font-size: 12px; font-weight: 200;" fill="rgb(50, 49, 63)" stroke="none" stroke-width="1px">200.0k</text><text x="65" y="0" dx="0em" dy="0.95em" style="text-anchor: middle; visibility: hidden; font-family: &quot;Helvetica Neue&quot;, sans-serif; font-size: 12px; font-weight: 200;" fill="rgb(50, 49, 63)" stroke="none" stroke-width="1px">400.0k</text><text x="86.66666666666666" y="0" dx="0em" dy="0.95em" style="text-anchor: middle; visibility: inherit; font-family: &quot;Helvetica Neue&quot;, sans-serif; font-size: 12px; font-weight: 200;" fill="rgb(50, 49, 63)" stroke="none" stroke-width="1px">600.0k</text><text x="108.33333333333334" y="0" dx="0em" dy="0.95em" style="text-anchor: middle; visibility: hidden; font-family: &quot;Helvetica Neue&quot;, sans-serif; font-size: 12px; font-weight: 200;" fill="rgb(50, 49, 63)" stroke="none" stroke-width="1px">800.0k</text><text x="130" y="0" dx="0em" dy="0.95em" style="text-anchor: middle; visibility: hidden; font-family: &quot;Helvetica Neue&quot;, sans-serif; font-size: 12px; font-weight: 200;" fill="rgb(50, 49, 63)" stroke="none" stroke-width="1px">1.000M</text><text x="151.66666666666669" y="0" dx="0em" dy="0.95em" style="text-anchor: middle; visibility: inherit; font-family: &quot;Helvetica Neue&quot;, sans-serif; font-size: 12px; font-weight: 200;" fill="rgb(50, 49, 63)" stroke="none" stroke-width="1px">1.200M</text><text x="173.33333333333331" y="0" dx="0em" dy="0.95em" style="text-anchor: middle; visibility: hidden; font-family: &quot;Helvetica Neue&quot;, sans-serif; font-size: 12px; font-weight: 200;" fill="rgb(50, 49, 63)" stroke="none" stroke-width="1px">1.400M</text><text x="195" y="0" dx="0em" dy="0.95em" style="text-anchor: middle; visibility: hidden; font-family: &quot;Helvetica Neue&quot;, sans-serif; font-size: 12px; font-weight: 200;" fill="rgb(50, 49, 63)" stroke="none" stroke-width="1px">1.600M</text><text x="216.66666666666669" y="0" dx="0em" dy="0.95em" style="text-anchor: middle; visibility: inherit; font-family: &quot;Helvetica Neue&quot;, sans-serif; font-size: 12px; font-weight: 200;" fill="rgb(50, 49, 63)" stroke="none" stroke-width="1px">1.800M</text><text x="238.33333333333331" y="0" dx="0em" dy="0.95em" style="text-anchor: middle; visibility: hidden; font-family: &quot;Helvetica Neue&quot;, sans-serif; font-size: 12px; font-weight: 200;" fill="rgb(50, 49, 63)" stroke="none" stroke-width="1px">2.000M</text><text x="260" y="0" dx="0em" dy="0.95em" style="text-anchor: middle; visibility: hidden; font-family: &quot;Helvetica Neue&quot;, sans-serif; font-size: 12px; font-weight: 200;" fill="rgb(50, 49, 63)" stroke="none" stroke-width="1px">2.200M</text></g><line x1="0" y1="0" x2="260" y2="0" fill="rgb(0, 0, 0)" stroke="rgb(204, 204, 204)" stroke-width="1px"></line></g></g></g></g></svg>