<svg viewBox="0 0 802.5 400" xmlns="http://www.w3.org/2000/svg"><g><g><g><g><g><line x1="118" y1="378" x2="113" y2="378" style="visibility: inherit;" fill="rgb(0, 0, 0)" stroke="rgb(204, 204, 204)" stroke-width="1px"></line><line x1="118" y1="346.5" x2="113" y2="346.5" style="visibility: inherit;" fill="rgb(0, 0, 0)" stroke="rgb(204, 204, 204)" stroke-width="1px"></line><line x1="118" y1="315" x2="113" y2="315" style="visibility: inherit;" fill="rgb(0, 0, 0)" stroke="rgb(204, 204, 204)" stroke-width="1px"></line><line x1="118" y1="283.5" x2="113" y2="283.5" style="visibility: inherit;" fill="rgb(0, 0, 0)" stroke="rgb(204, 204, 204)" stroke-width="1px"></line><line x1="118" y1="252" x2="113" y2="252" style="visibility: inherit;" fill="rgb(0, 0, 0)" stroke="rgb(204, 204, 204)" stroke-width="1px"></line><line x1="118" y1="220.5" x2="113" y2="220.5" style="visibility: inherit;" fill="rgb(0, 0, 0)" stroke="rgb(204, 204, 204)" stroke-width="1px"></line><line x1="118" y1="188.99999999999997" x2="113" y2="188.99999999999997" style="visibility: inherit;" fill="rgb(0, 0, 0)" stroke="rgb(204, 204, 204)" stroke-width="1px"></line><line x1="118" y1="157.50000000000003" x2="113" y2="157.50000000000003" style="visibility: inherit;" fill="rgb(0, 0, 0)" stroke="rgb(204, 204, 204)" stroke-width="1px"></line><line x1="118" y1="125.99999999999997" x2="113" y2="125.99999999999997" style="visibility: inherit;" fill="rgb(0, 0, 0)" stroke="rgb(204, 204, 204)" stroke-width="1px"></line><line x1="118" y1="94.5" x2="113" y2="94.5" style="visibility: inherit;" fill="rgb(0, 0, 0)" stroke="rgb(204, 204, 204)" stroke-width="1px"></line><line x1="118" y1="63" x2="113" y2="63" style="visibility: inherit;" fill="rgb(0, 0, 0)" stroke="rgb(204, 204, 204)" stroke-width="1px"></line><line x1="118" y1="31.5" x2="113" y2="31.5" style="visibility: inherit;" fill="rgb(0, 0, 0)" stroke="rgb(204, 204, 204)" stroke-width="1px"></line><line x1="118" y1="0" x2="113" y2="0" style="visibility: inherit;" fill="rgb(0, 0, 0)" stroke="rgb(204, 204, 204)" stroke-width="1px"></line></g><g transform="translate(108, 0)"><text x="0" y="378" dx="0em" dy="0.3em" style="text-anchor: end; visibility: hidden; font-family: &quot;Helvetica Neue&quot;, sans-serif; font-size: 12px; font-weight: 200;" fill="rgb(50, 49, 63)" stroke="none" stroke-width="1px">-5.000e-3</text><text x="0" y="346.5" dx="0em" dy="0.3em" style="text-anchor: end; visibility: inherit; font-family: &quot;Helvetica Neue&quot;, sans-serif; font-size: 12px; font-weight: 200;" fill="rgb(50, 49, 63)" stroke="none" stroke-width="1px">0.00</text><text x="0" y="315" dx="0em" dy="0.3em" style="text-anchor: end; visibility: inherit; font-family: &quot;Helvetica Neue&quot;, sans-serif; font-size: 12px; font-weight: 200;" fill="rgb(50, 49, 63)" stroke="none" stroke-width="1px">5.000e-3</text><text x="0" y="283.5" dx="0em" dy="0.3em" style="text-anchor: end; visibility: inherit; font-family: &quot;Helvetica Neue&quot;, sans-serif; font-size: 12px; font-weight: 200;" fill="rgb(50, 49, 63)" stroke="none" stroke-width="1px">0.0100</text><text x="0" y="252" dx="0em" dy="0.3em" style="text-anchor: end; visibility: inherit; font-family: &quot;Helvetica Neue&quot;, sans-serif; font-size: 12px; font-weight: 200;" fill="rgb(50, 49, 63)" stroke="none" stroke-width="1px">0.0150</text><text x="0" y="220.5" dx="0em" dy="0.3em" style="text-anchor: end; visibility: inherit; font-family: &quot;Helvetica Neue&quot;, sans-serif; font-size: 12px; font-weight: 200;" fill="rgb(50, 49, 63)" stroke="none" stroke-width="1px">0.0200</text><text x="0" y="188.99999999999997" dx="0em" dy="0.3em" style="text-anchor: end; visibility: inherit; font-family: &quot;Helvetica Neue&quot;, sans-serif; font-size: 12px; font-weight: 200;" fill="rgb(50, 49, 63)" stroke="none" stroke-width="1px">0.0250</text><text x="0" y="157.50000000000003" dx="0em" dy="0.3em" style="text-anchor: end; visibility: inherit; font-family: &quot;Helvetica Neue&quot;, sans-serif; font-size: 12px; font-weight: 200;" fill="rgb(50, 49, 63)" stroke="none" stroke-width="1px">0.0300</text><text x="0" y="125.99999999999997" dx="0em" dy="0.3em" style="text-anchor: end; visibility: inherit; font-family: &quot;Helvetica Neue&quot;, sans-serif; font-size: 12px; font-weight: 200;" fill="rgb(50, 49, 63)" stroke="none" stroke-width="1px">0.0350</text><text x="0" y="94.5" dx="0em" dy="0.3em" style="text-anchor: end; visibility: inherit; font-family: &quot;Helvetica Neue&quot;, sans-serif; font-size: 12px; font-weight: 200;" fill="rgb(50, 49, 63)" stroke="none" stroke-width="1px">0.0400</text><text x="0" y="63" dx="0em" dy="0.3em" style="text-anchor: end; visibility: inherit; font-family: &quot;Helvetica Neue&quot;, sans-serif; font-size: 12px; font-weight: 200;" fill="rgb(50, 49, 63)" stroke="none" stroke-width="1px">0.0450</text><text x="0" y="31.5" dx="0em" dy="0.3em" style="text-anchor: end; visibility: inherit; font-family: &quot;Helvetica Neue&quot;, sans-serif; font-size: 12px; font-weight: 200;" fill="rgb(50, 49, 63)" stroke="none" stroke-width="1px">0.0500</text><text x="0" y="0" dx="0em" dy="0.3em" style="text-anchor: end; visibility: hidden; font-family: &quot;Helvetica Neue&quot;, sans-serif; font-size: 12px; font-weight: 200;" fill="rgb(50, 49, 63)" stroke="none" stroke-width="1px">0.0550</text></g><line x1="118" y1="0" x2="118" y2="378" fill="rgb(0, 0, 0)" stroke="rgb(204, 204, 204)" stroke-width="1px"></line></g></g><g transform="translate(118, 0)" clip-path="url(#clip_0)"><clipPath id="clip_0"><rect width="684" height="378"></rect></clipPath><g><g><g><line x1="0" y1="0" x2="0" y2="378" fill="rgb(0, 0, 0)" stroke="rgb(60, 60, 60)" stroke-width="1px" opacity="0.25"></line><line x1="85.5625" y1="0" x2="85.5625" y2="378" fill="rgb(0, 0, 0)" stroke="rgb(60, 60, 60)" stroke-width="1px" opacity="0.25"></line><line x1="171.125" y1="0" x2="171.125" y2="378" fill="rgb(0, 0, 0)" stroke="rgb(60, 60, 60)" stroke-width="1px" opacity="0.25"></line><line x1="256.6875" y1="0" x2="256.6875" y2="378" fill="rgb(0, 0, 0)" stroke="rgb(60, 60, 60)" stroke-width="1px" opacity="0.25"></line><line x1="342.25" y1="0" x2="342.25" y2="378" fill="rgb(0, 0, 0)" stroke="rgb(60, 60, 60)" stroke-width="1px" opacity="0.25"></line><line x1="427.8125" y1="0" x2="427.8125" y2="378" fill="rgb(0, 0, 0)" stroke="rgb(60, 60, 60)" stroke-width="1px" opacity="0.25"></line><line x1="513.375" y1="0" x2="513.375" y2="378" fill="rgb(0, 0, 0)" stroke="rgb(60, 60, 60)" stroke-width="1px" opacity="0.25"></line><line x1="598.9375" y1="0" x2="598.9375" y2="378" fill="rgb(0, 0, 0)" stroke="rgb(60, 60, 60)" stroke-width="1px" opacity="0.25"></line><line x1="684.5" y1="0" x2="684.5" y2="378" fill="rgb(0, 0, 0)" stroke="rgb(60, 60, 60)" stroke-width="1px" opacity="0.25"></line></g><g><line x1="0" y1="378" x2="684.5" y2="378" fill="rgb(0, 0, 0)" stroke="rgb(60, 60, 60)" stroke-width="1px" opacity="0.25"></line><line x1="0" y1="346.5" x2="684.5" y2="346.5" fill="rgb(0, 0, 0)" stroke="rgb(60, 60, 60)" stroke-width="1px" opacity="0.25"></line><line x1="0" y1="315" x2="684.5" y2="315" fill="rgb(0, 0, 0)" stroke="rgb(60, 60, 60)" stroke-width="1px" opacity="0.25"></line><line x1="0" y1="283.5" x2="684.5" y2="283.5" fill="rgb(0, 0, 0)" stroke="rgb(60, 60, 60)" stroke-width="1px" opacity="0.25"></line><line x1="0" y1="252" x2="684.5" y2="252" fill="rgb(0, 0, 0)" stroke="rgb(60, 60, 60)" stroke-width="1px" opacity="0.25"></line><line x1="0" y1="220.5" x2="684.5" y2="220.5" fill="rgb(0, 0, 0)" stroke="rgb(60, 60, 60)" stroke-width="1px" opacity="0.25"></line><line x1="0" y1="188.99999999999997" x2="684.5" y2="188.99999999999997" fill="rgb(0, 0, 0)" stroke="rgb(60, 60, 60)" stroke-width="1px" opacity="0.25"></line><line x1="0" y1="157.50000000000003" x2="684.5" y2="157.50000000000003" fill="rgb(0, 0, 0)" stroke="rgb(60, 60, 60)" stroke-width="1px" opacity="0.25"></line><line x1="0" y1="125.99999999999997" x2="684.5" y2="125.99999999999997" fill="rgb(0, 0, 0)" stroke="rgb(60, 60, 60)" stroke-width="1px" opacity="0.25"></line><line x1="0" y1="94.5" x2="684.5" y2="94.5" fill="rgb(0, 0, 0)" stroke="rgb(60, 60, 60)" stroke-width="1px" opacity="0.25"></line><line x1="0" y1="63" x2="684.5" y2="63" fill="rgb(0, 0, 0)" stroke="rgb(60, 60, 60)" stroke-width="1px" opacity="0.25"></line><line x1="0" y1="31.5" x2="684.5" y2="31.5" fill="rgb(0, 0, 0)" stroke="rgb(60, 60, 60)" stroke-width="1px" opacity="0.25"></line><line x1="0" y1="0" x2="684.5" y2="0" fill="rgb(0, 0, 0)" stroke="rgb(60, 60, 60)" stroke-width="1px" opacity="0.25"></line></g></g></g><g><g><line x1="0" y1="346.5" x2="684.5" y2="346.5" fill="rgb(0, 0, 0)" stroke="rgb(153, 153, 153)" stroke-width="1.5px"></line></g></g><g><g><line x1="85.5625" y1="0" x2="85.5625" y2="378" fill="rgb(0, 0, 0)" stroke="rgb(153, 153, 153)" stroke-width="1.5px"></line></g></g><g><g><g><g><g><path stroke="rgb(0, 119, 187)" stroke-width="2px" d="M98.46361375,321.25579432211816L99.1271509375,310.86272859041395L99.8809565625,307.80742705671514L100.70791812499999,306.67513516010035L101.4202259375,306.00006278975445L102.29681375000001,305.83438816991037L103.03949625000001,305.7932199918463L103.74709812500001,305.71305013214663L104.601011875,305.45860958052725L105.3646571875,305.29790122106147L106.11931843750001,305.068848814822L106.8508778125,304.8127923367553L107.64618125,304.4929047411303L108.4534634375,304.1879218361904L109.27743031250002,303.8020527825017L110.16343,303.46396824668744L110.90440125,303.13175166095414L111.621415,302.8574177958084L112.30249249999999,302.54988933705744L113.08239468749998,302.3045763533752L114.00433062500001,302.06081110328444L114.786371875,301.8279011200611L115.61033875000001,301.63212661916293L116.3346253125,301.4625785550644L117.15174718749999,301.3045703875519L117.887156875,301.11722746337523L118.62898375,300.9185846506291L119.4850365625,300.74510101045496L120.2431203125,300.5807962962389L121.0662315625,300.3951076311188L121.862390625,300.2164737907647L122.7013309375,300.03595489439283L123.5244421875,299.83893633491533L124.26241875,299.6401452223989L125.1330171875,299.4376500419125L126.00276,299.2797508410539L126.80448062500001,299.11802755066685L127.62887531250001,298.92027278521124L128.3886703125,298.74035467285466L129.254135,298.587370511897L130.0802409375,298.4064934712957L130.8092334375,298.2214349462084L131.505284375,298.04477479224596L132.3241175,297.8925880283407L133.12156,297.77870229659084L133.87793250000001,297.65971621618905L134.6390109375,297.54372805159386L135.4124959375,297.4427605128111L136.3014903125,297.3350235500309L136.969305625,297.2513532454465L137.611024375,297.18256987269797L138.4020496875,297.07941507843464L139.1554275,296.984811584957L139.8694465625,296.8777690205496L140.65619375,296.78268616818724L141.45534750000002,296.70821393741693L142.3319353125,296.668967430638L143.1310890625,296.6062476265062L143.92810375,296.52741171043994L144.6746365625,296.45495800365745L145.59828375,296.3712235450159L146.39444281250002,296.3037190688759L147.0887825,296.235001339415L147.88023562499998,296.1583910538231L148.74013875,296.0868514573096L149.399825625,296.02452703491815L150.22550375,295.9740178539578L150.89331906249998,295.9363456727785L151.6300121875,295.8844975043892L152.39194625000002,295.853676256675L153.1684259375,295.81541755831483L153.878166875,295.75594215027223L154.6452346875,295.69954387325L155.366954375,295.6492906668864L156.1177653125,295.59900240983535L156.889966875,295.5631967552308L157.632649375,295.53223921077114L158.3406790625,295.4976444125813L159.106035625,295.4623199480229L159.7242246875,295.44355141768295L160.51353875,295.4314598450443L161.1496959375,295.4148212568979L161.8641428125,295.3931688235547L162.63677218750001,295.3749270684219L163.423519375,295.3687181535261L164.152511875,295.36713349980676L164.982468125,295.3581572379673L165.706326875,295.3519466817038L166.514036875,295.3582783694895L167.2918,295.37106889570066L168.064429375,295.37386713895603L168.900375,295.37092554781896L169.72862,295.3677544599L170.46231843750002,295.3707115032488L171.173770625,295.36628047351286L172.01656125,295.3728464752666L172.74298687499999,295.38307233770905L173.57165968750002,295.37595114568694L174.2698496875,295.35738488465984L174.94878812500002,295.33813488435055L175.56697718750002,295.31540258898787L176.33789531250002,295.29241299767205L177.074160625,295.26997121635037L177.91010624999998,295.25457178927707L178.75033,295.24081390400795L179.5276653125,295.2192871526406L180.2660696875,295.19829984510415L181.02800375,295.1789355611721L182.0064109375,295.158883957081L182.782890625,295.14127095950397L183.4425775,295.11521855471085L184.1608746875,295.0835656100045L184.99297,295.0475146232129L185.8464559375,294.9958861374542L186.6507434375,294.95005798321574L187.51834718749998,294.90610129594285L188.24562843750002,294.86524506187476L189.05847218750003,294.82193302158834L189.99409812500002,294.7863088070691L190.9682271875,294.7552939507813L192.1836425,294.7239586360907L193.3023721875,294.68628971266605L194.11821062500002,294.6563824188178L194.90495781250002,294.6042599275045L195.78582375,294.55526817830133L196.54091281249998,294.51157908116795L197.4564315625,294.47408965691767L198.55291499999998,294.42077152122005L199.3678978125,294.36108893778714L200.1439496875,294.30523596261963L200.82074906250003,294.23642135221644L201.5950896875,294.17975662671677L202.2967021875,294.1207189740137L202.99874250000002,294.0606149365925L203.71746750000003,293.98115451250067L204.5273165625,293.89955922246656L205.24219125000002,293.8083816031332L205.978884375,293.7275382165909L206.78744999999998,293.6583250595863L207.60457187499998,293.59928408425435L208.33655906250002,293.544302212311L209.110471875,293.48696373562666L209.89336875,293.4247089906747L210.5936978125,293.352037673256L211.44889500000002,293.2938119503841L212.218101875,293.2389263186626L213.01811125,293.19273532790055L214.052561875,293.1450250407244L214.78668812499998,293.10050115770287L215.929803125,293.0474710447621L216.8679959375,292.98781517275995L217.7518565625,292.92011810168174L218.89454375,292.85953438806615L220.06717781249998,292.78220009510073L220.9305034375,292.6971082996319L221.87297437499998,292.61616535709095L222.89672968749997,292.5335181522439L223.62443875,292.4628516703847L224.5754659375,292.38386623655776L225.48413968749998,292.29800611146374L226.4428675,292.2103394408524L227.535500625,292.1117275293983L228.5447103125,292.01634100841943L229.4183034375,291.9287584085107L230.67051062500002,291.8281386275042L231.71223406250002,291.7308656167357L232.397161875,291.6374408257244L233.610438125,291.48080514486946L234.8964425,291.2854122963462L235.836774375,291.0657885195287L237.1582871875,290.8256420441479L238.5803359375,290.5957441054013L239.63318249999998,290.35067743267496L241.0359796875,290.10445720400287L242.3305403125,289.85606686771314L243.54766687499998,289.57004797602406L244.82340375,289.20213236575137L246.057215,288.8320252627528L247.52375625,288.41188589902424L249.0540415625,287.98126994267653L250.39865625,287.54343208374706L251.78690781249998,287.0648960034482L253.21109562499998,286.5630685082362L254.602341875,286.0807454476549L255.96107437499998,285.5893877652206L257.4691134375,285.098713817267L258.8607875,284.5627284748859L260.13652437499996,284.0240417452412L261.582530625,283.4462055080544L263.06532875,282.8489328058495L264.5237415625,282.27284613480896L265.9449346875,281.66397131096255L267.3669834375,281.06137564979076L268.89384624999997,280.4117534457163L270.302205,279.7719606250207L271.70029625,279.091135850048L273.11721124999997,278.37938750350975L274.4763715625,277.6941994421744L275.93735125,276.97338803284737L277.5027171875,276.2087774316988L279.00904499999996,275.42212157935745L280.4221096875,274.6272076381817L281.8510034375,273.79861042036714L283.29914875000003,272.9607750795591L284.85638625,272.0744024751964L286.3284890625,271.1737331622551L287.8258328125,270.2668488473614L289.429701875,269.31031894505685L290.91421125,268.30198839294144L292.54332125,267.27746691716146L294.18312656250004,266.2475785606499L295.742503125,265.22714770699974L297.3912925,264.14352434224907L298.9874609375,263.03158618337716L300.7654496875,261.94336298520045L302.373596875,260.8025277714603L304.391160625,259.6035039644654L306.3081884375,258.3736664295327L308.208959375,257.17296256751115L309.9052359375,255.98556373736864L312.0122125,254.74099976564645L314.1517028125,253.4211738388954L316.09097687499997,252.0453733386762L318.3074734375,250.55351870662176L320.28011687500003,249.02844242593946L322.1902996875,247.5186151337011L324.10262156249996,246.00461508264507L325.89045000000004,244.56275876451554L327.79507125,243.0844692935735L329.80750125,241.5201607555733L331.9067771875,239.9480918136553L334.0244490625,238.36739407242902L335.88415000000003,236.75086056944528L337.6848128125,235.16489760862547L339.7468690625,233.56687126825634L341.9287128125,231.94414911029997L343.93643687499997,230.35208256496193L346.03485718749994,228.7741855214696L347.9488903125,227.17084869812876L350.05715031249997,225.5469069681773L352.06573000000003,223.89681056078982L354.02767812499997,222.24744535665604L356.48888343749996,220.50081407417076L358.4174621875,218.7504191495644L360.2078575,217.01970806729784L362.1591103125,215.29762579109922L364.1989203125,213.58074251434047L366.02953,211.8683004935841L368.25244374999994,210.11188581957072L370.4774965625,208.2483366300015L372.56607718749996,206.41985023557024L374.8523071875,204.56996304507234L377.013188125,202.70487947907802L379.21898937500004,200.79693775111988L381.44275875,198.89790701492794L383.59251656249995,197.01967217236427L385.5390634375,195.18406501548577L387.516840625,193.3790731639923L389.29696843749997,191.60354583056156L391.2152796875,189.8350262935475L393.07540843749996,188.10348129856104L395.14987125000005,186.30507029615714L397.019411875,184.50023943041887L398.9355840625,182.6567667451604L401.2183915625,180.7691259220548L403.169644375,178.89378402730875L405.40496468749996,177.0138533410985L407.50338500000004,175.15128993703746L409.465333125,173.3178842342035L411.423003125,171.4587027166374L413.43586093749997,169.5963181923625L415.394814375,167.7153924427445L417.70885218750004,165.8541837940561L419.84663125000003,164.03819731238733L421.8072959375,162.20347223652328L424.1594090625,160.2904404091221L426.5406134375,158.317196112629L428.7780728125,156.37754947983976L430.7109296875,154.53666448470017L433.07416593749997,152.65109873388727L435.081034375,150.83764967553932L437.5063034375,148.972866050983L439.602156875,147.14810986385154L441.63084375,145.35708814827507L443.8832765625,143.5637514055502L445.851641875,141.8004730636914L447.96204093750003,140.07840346826603L449.8153246875,138.3453543451514L451.77000000000004,136.55475588414293L454.06778093749995,134.80130524500132L456.0802109375,133.04893699025746L457.97456468750005,131.34541561118846L460.25095500000003,129.57003142702118L462.49654281249997,127.78501308575875L464.3789178125,126.0233152211996L466.52268625,124.3026991958811L468.373403125,122.62355839001228L470.55439125,120.98303735973104L472.45173968750004,119.43172504172469L474.29860625000003,117.89949987631422L476.6631259375,116.37036380889788L477.9953340625,114.95201009634326L478.6447534375,113.70146685073615L479.243263125,112.59163711093544L479.9718278125,111.58052051802883L480.5425296875,110.66177193959186L481.5983709375,109.80509684566914L483.35753593749996,108.91263899743922L484.79883624999997,108.06131226791632L487.140681875,107.11001032596545L488.631180625,106.1898221426938L490.53066812500003,105.2075816368374L492.901605,104.12891751154666L495.12622999999996,102.9926553528594L497.39919781249995,101.84512082394372L499.5151584375,100.72074367050305L501.7586071875,99.61240796080773L504.1458009375,98.4250237067572L506.3182328125,97.29828467370737L508.8081015625,96.14157317546221L510.793579375,94.9763661568237L513.0922159375,93.81492616715605L515.4930996875,92.6501128552481L517.98853,91.46846332651086L520.3273809374999,90.31908320335498L522.72013625,89.17536474455807L524.6863625,88.07203738842338L526.8292753124999,86.99270904022933L529.4132628125001,85.88123179360554L531.5420578124999,84.8005159682088L533.62764375,83.77096558217073L536.04050625,82.76469048278005L537.83389625,81.8453961446807L539.940445,80.90853568823456L542.048705,79.9448321595628L544.8376146874999,78.96536948733615L547.100315,78.02323947501446L549.28900375,77.12750998855603L551.5936296875,76.27171732039915L553.941036875,75.4111607310897L556.46598625,74.55009886415837L558.6088990625,73.69742086824135L561.0889281249999,72.84658706915889L563.549705625,72.02123008153774L565.8042775,71.19544748597548L568.3574625,70.34082570764241L570.7938546875,69.49357374030967L573.46212125,68.62677123392388L575.6597940625,67.76546415951168L578.139823125,66.8970877300855L580.37557125,66.01884189425107L583.5255546875,65.08110716577801L585.9165987499999,64.1643598223136L588.427858125,63.27426526964325L590.6109853125,62.42296171662673L592.7633099999999,61.580333643832944L595.1727500000001,60.74945603256049L597.54625375,59.92204965498638L599.97622875,59.10009697747785L602.76556625,58.28692892041465L605.321318125,57.50867829447117L607.5626278125001,56.770900832898235L610.11025125,56.00965318744073L612.6334893750001,55.27603626786657L615.2196159375,54.5554882296525L617.7646725,53.836608800390024L619.93967125,53.15125886356782L622.331143125,52.479288059828605L624.860370625,51.787829482594304L627.7117409374999,51.09504310374575L630.0920896875,50.399839386295184L632.4527590625,49.73911746590181L634.79332125,49.07804569257564L637.106075625,48.46167040951866L639.248560625,47.86190983762225L641.812013125,47.2862151428468L644.2492609375,46.712878393252936L646.4619071875001,46.17373759245464L649.0835421875,45.67508007016443L651.54645875,45.20046012987575" style="fill: none;" fill="none"></path></g></g></g></g><g opacity="0.2"><g><g><g><path stroke="rgb(0, 119, 187)" stroke-width="2px" d="M98.46361375,321.25579432211816L99.1271509375,302.0598019156605L99.8809565625,303.0276858396828L100.70791812499999,304.2157355379313L101.4202259375,304.1863255351782L102.29681375000001,305.3170425966382L103.03949625000001,305.649465104565L103.74709812500001,305.40803318470716L104.601011875,304.4231574665755L105.3646571875,304.60783761553466L106.11931843750001,304.041795540601L106.8508778125,303.62344008497894L107.64618125,302.9634532202035L108.4534634375,302.69451524689794L109.27743031250002,301.87483133375645L110.16343,301.7473987452686L110.90440125,301.42166499607265L111.621415,301.428978625685L112.30249249999999,300.9331274461001L113.08239468749998,301.00443900190294L114.00433062500001,300.76007341593504L114.786371875,300.5779631584883L115.61033875000001,300.57640831544995L116.3346253125,300.5445663034916L117.15174718749999,300.44610366784036L117.887156875,300.0964341368526L118.62898375,299.83357178606093L119.4850365625,299.7955514732748L120.2431203125,299.67991515621543L121.0662315625,299.37547395564616L121.862390625,299.23435288108885L122.7013309375,299.0424207095057L123.5244421875,298.75362181663513L124.26241875,298.54423726536334L125.1330171875,298.3206068314612L126.00276,298.4082442391664L126.80448062500001,298.22500452026725L127.62887531250001,297.82786240428686L128.3886703125,297.74614806845784L129.254135,297.74176223762333L130.0802409375,297.406473537907L130.8092334375,297.19809230044484L131.505284375,297.0677084438503L132.3241175,297.0507577210665L133.12156,297.1486600264907L133.87793250000001,297.00138998776674L134.6390109375,296.9019328393042L135.4124959375,296.884037476033L136.3014903125,296.7388034015894L136.969305625,296.78829434886575L137.611024375,296.80188309028745L138.4020496875,296.50847540795803L139.1554275,296.4611847102642L139.8694465625,296.28527622297406L140.65619375,296.2563796117902L141.45534750000002,296.2959841042757L142.3319353125,296.4517207033932L143.1310890625,296.25906098261476L143.92810375,296.0910088531673L144.6746365625,296.05388037487864L145.59828375,295.9076957926154L146.39444281250002,295.93003272637725L147.0887825,295.8545964360237L147.88023562499998,295.73429265618324L148.74013875,295.6908215917647L149.399825625,295.6795093752444L150.22550375,295.69440653175116L150.89331906249998,295.7277975194156L151.6300121875,295.59747233614326L152.39194625000002,295.6830532439053L153.1684259375,295.6036213003099L153.878166875,295.42669189721346L154.6452346875,295.38732796534896L155.366954375,295.371093057096L156.1177653125,295.32061053067446L156.889966875,295.3649792969227L157.632649375,295.3608604297042L158.3406790625,295.3061299547553L159.106035625,295.2667660228908L159.7242246875,295.3396500237286L160.51353875,295.3645216450095L161.1496959375,295.32271103560925L161.8641428125,295.273302230984L162.63677218750001,295.27394177019596L163.423519375,295.33434595540166L164.152511875,295.35836094617844L164.982468125,295.3084651529789L165.706326875,295.31756538525224L166.514036875,295.3933302462101L167.2918,295.441876552999L168.064429375,295.3893580622971L168.900375,295.3546410575509L169.72862,295.3501994870603L170.46231843750002,295.3870815373957L171.173770625,295.3417505286634L172.01656125,295.4091955125332L172.74298687499999,295.4396821707487L173.57165968750002,295.3365286029875L174.2698496875,295.2546030431986L174.94878812500002,295.23156789690256L175.56697718750002,295.1895577982068L176.33789531250002,295.16514382883906L177.074160625,295.14573469385505L177.91010624999998,295.16932136937976L178.75033,295.1646509729326L179.5276653125,295.10011618584394L180.2660696875,295.08211521059275L181.02800375,295.07173589989543L182.0064109375,295.0478793270886L182.782890625,295.0437663272023L183.4425775,294.9709938056767L184.1608746875,294.9083365648985L184.99297,294.847938247025L185.8464559375,294.71007354184985L186.6507434375,294.6963557191193L187.51834718749998,294.66275937482715L188.24562843750002,294.6390670873225L189.05847218750003,294.58215983211994L189.99409812500002,294.5890950188041L190.9682271875,294.58359732851386L192.1836425,294.55048797279596L193.3023721875,294.4777565225959L194.11821062500002,294.4908172041178L194.90495781250002,294.3157125413418L195.78582375,294.28405241668224L196.54091281249998,294.2697185240686L197.4564315625,294.26655016466975L198.55291499999998,294.12560511007905L199.3678978125,294.03068927675486L200.1439496875,293.9960368126631L200.82074906250003,293.85546726733446L201.5950896875,293.8660636693239L202.2967021875,293.79388961568475L202.99874250000002,293.7278821282089L203.71746750000003,293.5412657596171L204.5273165625,293.44785196334124L205.24219125000002,293.3036270700395L205.978884375,293.27999345585704L206.78744999999998,293.2751646414399L207.60457187499998,293.2724363319576L208.33655906250002,293.23992544412613L209.110471875,293.1695409268141L209.89336875,293.0800699777901L210.5936978125,292.9497330598533L211.44889500000002,292.9714773930609L212.218101875,292.9350823312998L213.01811125,292.9370244182646L214.052561875,292.8809033855796L214.78668812499998,292.8540192693472L215.929803125,292.7538991123438L216.8679959375,292.65756338462234L217.7518565625,292.54535065591335L218.89454375,292.52414611727L220.06717781249998,292.35408149287105L220.9305034375,292.2260445691645L221.87297437499998,292.16806945949793L222.89672968749997,292.07598754763603L223.62443875,292.0716457217932L224.5754659375,291.9466070048511L225.48413968749998,291.82268894836307L226.4428675,291.72502133622766L227.535500625,291.5658171437681L228.5447103125,291.48828621581197L229.4183034375,291.4439057148993L230.67051062500002,291.271112781018L231.71223406250002,291.19236731529236L232.397161875,291.12024606764317L233.610438125,290.61367820575833L234.8964425,290.2037277035415L235.836774375,289.84996277466416L237.1582871875,289.49620371311903L238.5803359375,289.3230411373079L239.63318249999998,288.99400114640594L241.0359796875,288.74139489233494L242.3305403125,288.48099095374346L243.54766687499998,287.9866623468697L244.82340375,287.1653707846999L246.057215,286.7831316925585L247.52375625,286.08601634949446L249.0540415625,285.59740252420306L250.39865625,285.1195845901966L251.78690781249998,284.41574528440833L253.21109562499998,283.7849777340889L254.602341875,283.4106302037835L255.96107437499998,282.8692573271692L257.4691134375,282.3823684975505L258.8607875,281.59554164484143L260.13652437499996,281.0419001765549L261.582530625,280.2473343126476L263.06532875,279.54246235638857L264.5237415625,279.0836604461074L265.9449346875,278.29327212274075L267.3669834375,277.72543757781386L268.89384624999997,276.81547889113426L270.302205,276.23010102286935L271.70029625,275.32212549448013L273.11721124999997,274.439185872674L274.4763715625,273.9010341614485L275.93735125,272.9830137602985L277.5027171875,271.97593312337995L279.00904499999996,271.06723591312766L280.4221096875,270.2266056239605L281.8510034375,269.2115395478904L283.29914875000003,268.3225624412298L284.85638625,267.16749008372426L286.3284890625,266.1876749396324L287.8258328125,265.2463846988976L289.429701875,264.0150194205344L290.91421125,262.71992317959666L292.54332125,261.6057695969939L294.18312656250004,260.54617046937346L295.742503125,259.578095857054L297.3912925,258.14464205503464L298.9874609375,256.8759546764195L300.7654496875,255.91901626065373L302.373596875,254.48692367970943L304.391160625,252.96577086299658L306.3081884375,251.56535014137626L308.208959375,250.52592876926064L309.9052359375,249.41218589991328L312.0122125,247.8511586934328L314.1517028125,246.11468651890755L316.09097687499997,244.42901370674372L318.3074734375,242.29468946903944L320.28011687500003,240.585699878633L322.1902996875,239.16029018908736L324.10262156249996,237.62318996340036L325.89045000000004,236.58071757853028L327.79507125,234.90073607861996L329.80750125,232.86023048311472L331.9067771875,231.2452003508806L334.0244490625,229.61673402786252L335.88415000000003,227.80181562155485L337.6848128125,226.38508958369493L339.7468690625,224.72028100490567L341.9287128125,222.96084409207106L343.93643687499997,221.53848541527987L346.03485718749994,220.03902999311683L347.9488903125,218.29485987871885L350.05715031249997,216.55685046315193L352.06573000000003,214.76196312904358L354.02767812499997,213.11664582788944L356.48888343749996,210.83155462145805L358.4174621875,209.06032437086105L360.2078575,207.4385820105672L362.1591103125,205.7642683535814L364.1989203125,204.07616646587846L366.02953,202.38831100612876L368.25244374999994,200.3884660229087L370.4774965625,197.93182575702667L372.56607718749996,196.29744516313076L374.8523071875,194.3290842846036L377.013188125,192.37987437844276L379.21898937500004,190.23467210680246L381.44275875,188.38497215509415L383.59251656249995,186.6218622922897L385.5390634375,185.02223977446556L387.516840625,183.3867326527834L389.29696843749997,181.77431935071945L391.2152796875,180.04459460824728L393.07540843749996,178.51773874461654L395.14987125000005,176.34916102141142L397.019411875,174.50879012793303L398.9355840625,172.4513983502984L401.2183915625,170.31924502551556L403.169644375,168.5119893550873L405.40496468749996,166.6066553592682L407.50338500000004,164.84023632109165L409.465333125,163.16824612766504L411.423003125,161.1663710474968L413.43586093749997,159.28625484555963L415.394814375,157.30268584191802L417.70885218750004,155.5506300330162L419.84663125000003,153.98499110341075L421.8072959375,152.04653014987707L424.1594090625,149.69999624043706L426.5406134375,147.39341886341572L428.7780728125,145.63976714015007L430.7109296875,144.345621407032L433.07416593749997,142.21270532906058L435.081034375,140.79849050939083L437.5063034375,138.64952141046524L439.602156875,137.04635502398014L441.63084375,135.44208557903767L443.8832765625,133.63593296706676L445.851641875,132.0390563607216L447.96204093750003,130.54511623084545L449.8153246875,128.7512850165367L451.77000000000004,126.64209643006325L454.06778093749995,125.0942941904068L456.0802109375,123.34791795909405L457.97456468750005,121.91481032967567L460.25095500000003,119.74159741401672L462.49654281249997,117.90324488282204L464.3789178125,116.27064795792103L466.52268625,114.77745884656906L468.373403125,113.32792268693447L470.55439125,111.90119871497154L472.45173968750004,110.84374116361141L474.29860625000003,109.41718147695065L476.6631259375,107.90514649450779L477.9953340625,107.10007810592651L478.6447534375,106.77852483093739L479.243263125,106.44767770171165L479.9718278125,105.98303192853928L480.5425296875,105.57562784850597L481.5983709375,105.0625883191824L483.35753593749996,103.97203901410103L484.79883624999997,103.34841200709343L487.140681875,101.84365251660347L488.631180625,101.09570847451687L490.53066812500003,99.76994955539703L492.901605,98.15748931467533L495.12622999999996,96.70236745476723L497.39919781249995,95.49242967367172L499.5151584375,94.49625054001808L501.7586071875,93.47671942412853L504.1458009375,91.85172656178474L506.3182328125,91.06071630120277L508.8081015625,89.73807880282402L510.793579375,88.52584102749825L513.0922159375,87.38525511324406L515.4930996875,86.20176726579666L517.98853,84.92691332101822L520.3273809374999,83.95617493987083L522.72013625,82.84379915893078L524.6863625,81.96407483518124L526.8292753124999,81.01760374009609L529.4132628125001,79.7281518727541L531.5420578124999,78.81772966682911L533.62764375,78.07142847776413L536.04050625,77.19400414824486L537.83389625,76.75623075664043L539.940445,75.72212518751621L542.048705,74.6098198145628L544.8376146874999,73.54311534762383L547.100315,72.80765698850155L549.28900375,72.16879838705063L551.5936296875,71.53409385681152L553.941036875,70.64716444909573L556.46598625,69.78330539166927L558.6088990625,68.9770400673151L561.0889281249999,68.13641564548016L563.549705625,67.45209695398808L565.8042775,66.62395821511745L568.3574625,65.6096842288971L570.7938546875,64.80323114991188L573.46212125,63.8281978815794L575.6597940625,62.99731323122978L578.139823125,62.08980122208595L580.37557125,61.15691886842251L583.5255546875,59.88985674083233L585.9165987499999,59.08929446339607L588.427858125,58.34674836695194L590.6109853125,57.71018975973129L592.7633099999999,56.915588691830635L595.1727500000001,56.14976102113724L597.54625375,55.34157121181488L599.97622875,54.54980993270874L602.76556625,53.78527307510376L605.321318125,53.20032352209091L607.5626278125001,52.686603382229805L610.11025125,51.79542602598667L612.6334893750001,51.21477136015892L615.2196159375,50.56657196581364L617.7646725,49.8569298684597L619.93967125,49.35719744861126L622.331143125,48.75929282605648L624.860370625,47.959950953722L627.7117409374999,47.25981393456459L630.0920896875,46.55122795701027L632.4527590625,46.08139546215534L634.79332125,45.41838692128658L637.106075625,45.04944907128811L639.248560625,44.54166667163372L641.812013125,44.099199414253235L644.2492609375,43.53891612589359L646.4619071875001,43.18908230960369L649.0835421875,42.914538100361824L651.54645875,42.57298895716667" style="fill: none;" fill="none"></path></g></g></g></g></g></g><g transform="translate(118, 378)" clip-path="url(#clip_1)"><clipPath id="clip_1"><rect width="684" height="22"></rect></clipPath><g><g><line x1="0" y1="0" x2="0" y2="5" style="visibility: inherit;" fill="rgb(0, 0, 0)" stroke="rgb(204, 204, 204)" stroke-width="1px"></line><line x1="85.5625" y1="0" x2="85.5625" y2="5" style="visibility: inherit;" fill="rgb(0, 0, 0)" stroke="rgb(204, 204, 204)" stroke-width="1px"></line><line x1="171.125" y1="0" x2="171.125" y2="5" style="visibility: inherit;" fill="rgb(0, 0, 0)" stroke="rgb(204, 204, 204)" stroke-width="1px"></line><line x1="256.6875" y1="0" x2="256.6875" y2="5" style="visibility: inherit;" fill="rgb(0, 0, 0)" stroke="rgb(204, 204, 204)" stroke-width="1px"></line><line x1="342.25" y1="0" x2="342.25" y2="5" style="visibility: inherit;" fill="rgb(0, 0, 0)" stroke="rgb(204, 204, 204)" stroke-width="1px"></line><line x1="427.8125" y1="0" x2="427.8125" y2="5" style="visibility: inherit;" fill="rgb(0, 0, 0)" stroke="rgb(204, 204, 204)" stroke-width="1px"></line><line x1="513.375" y1="0" x2="513.375" y2="5" style="visibility: inherit;" fill="rgb(0, 0, 0)" stroke="rgb(204, 204, 204)" stroke-width="1px"></line><line x1="598.9375" y1="0" x2="598.9375" y2="5" style="visibility: inherit;" fill="rgb(0, 0, 0)" stroke="rgb(204, 204, 204)" stroke-width="1px"></line><line x1="684.5" y1="0" x2="684.5" y2="5" style="visibility: inherit;" fill="rgb(0, 0, 0)" stroke="rgb(204, 204, 204)" stroke-width="1px"></line></g><g transform="translate(0, 8)"><text x="0" y="0" dx="0em" dy="0.95em" style="text-anchor: middle; visibility: hidden; font-family: &quot;Helvetica Neue&quot;, sans-serif; font-size: 12px; font-weight: 200;" fill="rgb(50, 49, 63)" stroke="none" stroke-width="1px">-200.0k</text><text x="85.5625" y="0" dx="0em" dy="0.95em" style="text-anchor: middle; visibility: inherit; font-family: &quot;Helvetica Neue&quot;, sans-serif; font-size: 12px; font-weight: 200;" fill="rgb(50, 49, 63)" stroke="none" stroke-width="1px">0.000</text><text x="171.125" y="0" dx="0em" dy="0.95em" style="text-anchor: middle; visibility: inherit; font-family: &quot;Helvetica Neue&quot;, sans-serif; font-size: 12px; font-weight: 200;" fill="rgb(50, 49, 63)" stroke="none" stroke-width="1px">200.0k</text><text x="256.6875" y="0" dx="0em" dy="0.95em" style="text-anchor: middle; visibility: inherit; font-family: &quot;Helvetica Neue&quot;, sans-serif; font-size: 12px; font-weight: 200;" fill="rgb(50, 49, 63)" stroke="none" stroke-width="1px">400.0k</text><text x="342.25" y="0" dx="0em" dy="0.95em" style="text-anchor: middle; visibility: inherit; font-family: &quot;Helvetica Neue&quot;, sans-serif; font-size: 12px; font-weight: 200;" fill="rgb(50, 49, 63)" stroke="none" stroke-width="1px">600.0k</text><text x="427.8125" y="0" dx="0em" dy="0.95em" style="text-anchor: middle; visibility: inherit; font-family: &quot;Helvetica Neue&quot;, sans-serif; font-size: 12px; font-weight: 200;" fill="rgb(50, 49, 63)" stroke="none" stroke-width="1px">800.0k</text><text x="513.375" y="0" dx="0em" dy="0.95em" style="text-anchor: middle; visibility: inherit; font-family: &quot;Helvetica Neue&quot;, sans-serif; font-size: 12px; font-weight: 200;" fill="rgb(50, 49, 63)" stroke="none" stroke-width="1px">1.000M</text><text x="598.9375" y="0" dx="0em" dy="0.95em" style="text-anchor: middle; visibility: inherit; font-family: &quot;Helvetica Neue&quot;, sans-serif; font-size: 12px; font-weight: 200;" fill="rgb(50, 49, 63)" stroke="none" stroke-width="1px">1.200M</text><text x="684.5" y="0" dx="0em" dy="0.95em" style="text-anchor: middle; visibility: hidden; font-family: &quot;Helvetica Neue&quot;, sans-serif; font-size: 12px; font-weight: 200;" fill="rgb(50, 49, 63)" stroke="none" stroke-width="1px">1.400M</text></g><line x1="0" y1="0" x2="684.5" y2="0" fill="rgb(0, 0, 0)" stroke="rgb(204, 204, 204)" stroke-width="1px"></line></g></g></g></g></svg>